<?xml version="1.0" encoding="utf-8"?>
<!-- Generator: Adobe Illustrator 16.0.0, SVG Export Plug-In . SVG Version: 6.00 Build 0)  -->
<!DOCTYPE svg PUBLIC "-//W3C//DTD SVG 1.1//EN" "http://www.w3.org/Graphics/SVG/1.1/DTD/svg11.dtd">
<svg version="1.1" id="Layer_1" xmlns="http://www.w3.org/2000/svg" xmlns:xlink="http://www.w3.org/1999/xlink" x="0px" y="0px"
	 width="80.466px" height="91.319px" viewBox="0 0 80.466 91.319" enable-background="new 0 0 80.466 91.319" xml:space="preserve">
<g>
	<path fill="#FFFFFF" d="M35.763,64.619l0.213-4.785c0.019-0.424,0.381-0.609,0.664-0.73l-0.004-0.006
		c1.943-0.299,3.814-0.812,5.597-1.504v0.01c0.308-0.037,0.709-0.055,0.935,0.303l2.579,4.039c0.105,0.184,0.333,0.246,0.521,0.154
		l4.987-2.881c0.176-0.115,0.233-0.346,0.127-0.527l-2.209-4.254c-0.194-0.375,0.026-0.717,0.211-0.963l-0.014-0.008
		c1.51-1.217,2.884-2.592,4.101-4.102l0.008,0.014c0.245-0.188,0.585-0.4,0.96-0.205l4.253,2.209
		c0.183,0.105,0.412,0.047,0.528-0.127l2.879-4.988c0.094-0.189,0.03-0.416-0.154-0.521l-4.038-2.578
		c-0.356-0.229-0.337-0.635-0.3-0.941h-0.012c0.691-1.783,1.204-3.654,1.503-5.596l0.006,0.002c0.12-0.283,0.307-0.639,0.729-0.658
		l4.788-0.213c0.211,0,0.38-0.166,0.394-0.373l-0.001-5.76c-0.013-0.211-0.182-0.377-0.394-0.375l-4.787-0.213
		c-0.423-0.02-0.608-0.383-0.729-0.666l-0.008,0.004c-0.3-1.941-0.813-3.814-1.505-5.596h0.012
		c-0.038-0.307-0.054-0.709,0.303-0.936l4.039-2.578c0.184-0.105,0.247-0.334,0.155-0.521l-2.883-4.986
		c-0.115-0.177-0.344-0.234-0.527-0.129l-4.251,2.209c-0.376,0.195-0.719-0.025-0.964-0.211l-0.01,0.016
		c-1.216-1.51-2.591-2.885-4.101-4.1l0.013-0.01c-0.187-0.246-0.399-0.586-0.204-0.961l2.208-4.252
		c0.106-0.184,0.048-0.412-0.126-0.529l-4.99-2.877c-0.188-0.096-0.415-0.031-0.521,0.152l-2.577,4.039
		c-0.228,0.357-0.636,0.336-0.94,0.299v0.014c-1.783-0.691-3.655-1.205-5.599-1.504l0.004-0.006c-0.284-0.121-0.64-0.309-0.658-0.73
		l-0.212-4.787c0-0.211-0.167-0.381-0.375-0.395h-5.761c-0.208,0.014-0.374,0.184-0.375,0.395L29.04,5.182
		c-0.019,0.422-0.381,0.609-0.664,0.73L28.38,5.92c-1.942,0.299-3.814,0.812-5.597,1.504l-0.001-0.012
		c-0.307,0.037-0.708,0.053-0.935-0.303L19.271,3.07c-0.106-0.184-0.335-0.246-0.522-0.154l-4.989,2.881
		c-0.173,0.115-0.232,0.345-0.127,0.528l2.21,4.251c0.194,0.375-0.025,0.719-0.21,0.965l0.014,0.008
		c-1.509,1.217-2.884,2.592-4.1,4.102l-0.009-0.014c-0.246,0.186-0.586,0.4-0.961,0.205l-4.252-2.209
		c-0.184-0.105-0.412-0.047-0.529,0.127l-2.88,4.989c-0.092,0.187-0.028,0.415,0.154,0.522l4.04,2.576
		c0.356,0.227,0.337,0.635,0.3,0.939h0.012c-0.691,1.783-1.205,3.656-1.503,5.598l-0.007-0.002c-0.12,0.283-0.307,0.639-0.729,0.658
		l-4.788,0.211C0.184,29.254,0.015,29.42,0,29.627v5.762c0.015,0.209,0.184,0.373,0.395,0.375l4.788,0.211
		c0.422,0.02,0.608,0.381,0.729,0.664l0.007-0.004c0.3,1.943,0.812,3.816,1.504,5.598h-0.01c0.038,0.307,0.054,0.709-0.303,0.936
		l-4.04,2.578c-0.183,0.105-0.246,0.334-0.154,0.521l2.881,4.988c0.117,0.174,0.346,0.232,0.529,0.127l4.252-2.209
		c0.375-0.195,0.717,0.025,0.964,0.211l0.008-0.014c1.216,1.51,2.591,2.883,4.101,4.1l-0.012,0.008
		c0.186,0.246,0.4,0.586,0.204,0.961l-2.209,4.252c-0.106,0.184-0.046,0.412,0.127,0.529l4.989,2.879
		c0.188,0.094,0.416,0.029,0.521-0.154l2.578-4.039c0.227-0.355,0.634-0.338,0.939-0.301v-0.01c1.782,0.691,3.654,1.203,5.597,1.502
		l-0.003,0.006c0.285,0.121,0.641,0.307,0.659,0.73l0.212,4.787c0,0.211,0.166,0.379,0.375,0.395h5.76
		C35.598,65,35.763,64.832,35.763,64.619z M32.508,14.193c10.115,0,18.315,8.199,18.315,18.314c0,10.117-8.2,18.316-18.315,18.316
		c-10.116,0-18.316-8.199-18.316-18.316C14.191,22.393,22.392,14.193,32.508,14.193z"/>
	<path fill="#FFFFFF" d="M79.33,59.312c-0.057-0.203-0.254-0.332-0.462-0.291l-4.735,0.734c-0.419,0.066-0.673-0.254-0.846-0.506
		l-0.016,0.012c-0.28-0.424-0.58-0.838-0.925-1.23c-0.345-0.391-0.719-0.742-1.104-1.072l0.016-0.014
		c-0.23-0.205-0.507-0.494-0.39-0.902l1.33-4.602c0.066-0.203-0.036-0.414-0.229-0.496l-5.459-1.842
		c-0.202-0.051-0.412,0.055-0.481,0.254L64.3,53.826c-0.154,0.396-0.557,0.455-0.864,0.479l0.003,0.02
		c-1.019,0.059-2.031,0.256-3.009,0.598l-0.003-0.012c-0.293,0.098-0.684,0.191-0.976-0.113l-3.322-3.453
		c-0.141-0.16-0.377-0.176-0.542-0.049l-4.325,3.807c-0.146,0.148-0.159,0.385-0.02,0.543l3.003,3.734
		c0.266,0.328,0.117,0.709-0.016,0.986l0.012,0.004c-0.464,0.926-0.788,1.906-0.976,2.91l-0.019-0.006
		c-0.062,0.301-0.175,0.688-0.586,0.787l-4.65,1.15c-0.208,0.043-0.341,0.238-0.313,0.445l1.133,5.648
		c0.056,0.201,0.255,0.332,0.462,0.291l4.734-0.734c0.418-0.066,0.674,0.252,0.846,0.506l0.017-0.012
		c0.279,0.424,0.579,0.838,0.924,1.23c0.346,0.391,0.719,0.74,1.104,1.072l-0.016,0.014c0.23,0.205,0.508,0.494,0.39,0.902
		l-1.329,4.602c-0.067,0.203,0.035,0.414,0.229,0.496l5.458,1.84c0.202,0.053,0.414-0.053,0.481-0.254l1.732-4.467
		c0.151-0.395,0.555-0.457,0.862-0.479l-0.004-0.02c1.02-0.059,2.032-0.256,3.01-0.6l0.004,0.014
		c0.292-0.098,0.682-0.191,0.975,0.113l3.32,3.453c0.143,0.158,0.379,0.176,0.544,0.049l4.324-3.807
		c0.146-0.148,0.16-0.385,0.021-0.545l-3.004-3.732c-0.265-0.328-0.115-0.709,0.017-0.984l-0.013-0.006
		c0.464-0.926,0.789-1.906,0.977-2.91l0.019,0.006c0.062-0.303,0.174-0.688,0.586-0.787l4.65-1.15
		c0.208-0.045,0.34-0.24,0.313-0.445L79.33,59.312z M60.977,68.039c-1.509-1.713-1.342-4.326,0.372-5.834
		c1.713-1.51,4.326-1.342,5.834,0.371c1.509,1.715,1.342,4.326-0.371,5.836C65.098,69.92,62.485,69.754,60.977,68.039z"/>
	<path fill="#FFFFFF" d="M56.319,81.963l-2.89-1.109c-0.256-0.098-0.295-0.357-0.311-0.555l-0.014,0.002
		c-0.021-0.326-0.056-0.656-0.123-0.986s-0.164-0.646-0.273-0.955l0.014-0.004c-0.063-0.188-0.126-0.439,0.07-0.629l2.223-2.152
		c0.103-0.092,0.113-0.244,0.031-0.352l-2.468-2.785c-0.097-0.094-0.248-0.102-0.352-0.012l-2.403,1.949
		c-0.213,0.172-0.458,0.076-0.638-0.01l-0.004,0.012c-0.59-0.295-1.221-0.51-1.878-0.631l0.002-0.008
		c-0.196-0.041-0.445-0.111-0.511-0.377l-0.753-3.002c-0.028-0.135-0.154-0.219-0.288-0.201l-3.646,0.744
		c-0.13,0.037-0.213,0.164-0.186,0.299l0.483,3.057c0.044,0.27-0.161,0.434-0.325,0.547l0.006,0.006
		c-0.558,0.371-1.054,0.816-1.48,1.318l-0.009-0.01c-0.132,0.148-0.319,0.328-0.582,0.254l-2.976-0.85
		c-0.13-0.043-0.267,0.025-0.318,0.15l-1.179,3.527c-0.033,0.131,0.037,0.268,0.166,0.311l2.889,1.109
		c0.256,0.098,0.296,0.357,0.312,0.557l0.013-0.004c0.021,0.328,0.056,0.656,0.123,0.986c0.068,0.33,0.165,0.646,0.274,0.957
		l-0.014,0.002c0.063,0.189,0.125,0.441-0.07,0.631l-2.223,2.152c-0.104,0.092-0.114,0.242-0.031,0.35l2.467,2.785
		c0.098,0.094,0.249,0.102,0.352,0.012l2.405-1.947c0.212-0.172,0.457-0.078,0.638,0.01l0.004-0.014
		c0.591,0.295,1.221,0.51,1.879,0.631l-0.003,0.01c0.194,0.039,0.444,0.111,0.51,0.375l0.752,3.002
		c0.029,0.135,0.155,0.221,0.289,0.201l3.645-0.744c0.131-0.035,0.214-0.164,0.187-0.299l-0.483-3.055
		c-0.044-0.27,0.162-0.436,0.325-0.547l-0.006-0.008c0.558-0.371,1.054-0.814,1.481-1.316l0.008,0.008
		c0.132-0.148,0.318-0.328,0.582-0.252l2.975,0.848c0.131,0.043,0.267-0.023,0.319-0.148l1.178-3.529
		C56.518,82.143,56.449,82.006,56.319,81.963z M41.732,81.611c-0.481-2.363,1.043-4.672,3.409-5.156
		c2.363-0.482,4.672,1.043,5.154,3.408c0.484,2.363-1.043,4.674-3.405,5.154C44.525,85.502,42.216,83.975,41.732,81.611z"/>
</g>
</svg>
