<?xml version="1.0" encoding="utf-8"?>
<!-- Generator: Adobe Illustrator 16.0.0, SVG Export Plug-In . SVG Version: 6.00 Build 0)  -->
<!DOCTYPE svg PUBLIC "-//W3C//DTD SVG 1.1//EN" "http://www.w3.org/Graphics/SVG/1.1/DTD/svg11.dtd">
<svg version="1.1" id="Layer_1" xmlns="http://www.w3.org/2000/svg" xmlns:xlink="http://www.w3.org/1999/xlink" x="0px" y="0px"
	 width="101.258px" height="103.869px" viewBox="0 0 101.258 103.869" enable-background="new 0 0 101.258 103.869"
	 xml:space="preserve">
<g>
	<g>
		<polygon fill="#000000" points="32.883,4.111 35.146,11.076 42.469,11.076 36.544,15.381 38.808,22.346 32.883,18.041 
			26.958,22.346 29.222,15.381 23.297,11.076 30.619,11.076 		"/>
	</g>
	<g>
		<polygon fill="#000000" points="18.087,15.93 20.351,22.895 27.673,22.895 21.748,27.199 24.012,34.164 18.087,29.859 
			12.162,34.164 14.426,27.199 8.501,22.895 15.823,22.895 		"/>
	</g>
	<g>
		<polygon fill="#000000" points="9.83,32.855 12.094,39.82 19.416,39.82 13.491,44.127 15.755,51.092 9.83,46.787 3.905,51.092 
			6.169,44.127 0.244,39.82 7.566,39.82 		"/>
	</g>
	<g>
		<polygon fill="#000000" points="9.586,51.648 11.85,58.613 19.172,58.613 13.247,62.92 15.511,69.885 9.586,65.58 3.661,69.885 
			5.925,62.92 0,58.613 7.322,58.613 		"/>
	</g>
	<g>
		<polygon fill="#000000" points="17.397,68.762 19.661,75.727 26.983,75.727 21.059,80.033 23.322,86.998 17.397,82.693 
			11.473,86.998 13.736,80.033 7.812,75.727 15.134,75.727 		"/>
	</g>
	<g>
		<polygon fill="#000000" points="31.86,80.914 34.124,87.879 41.446,87.879 35.521,92.184 37.785,99.148 31.86,94.844 
			25.936,99.148 28.199,92.184 22.274,87.879 29.597,87.879 		"/>
	</g>
	<g>
		<polygon fill="#000000" points="50.267,85.635 52.53,92.6 59.853,92.6 53.928,96.904 56.191,103.869 50.267,99.564 
			44.342,103.869 46.605,96.904 40.681,92.6 48.003,92.6 		"/>
	</g>
	<g>
		<polygon fill="#000000" points="68.797,81.373 71.061,88.338 78.383,88.338 72.458,92.643 74.722,99.607 68.797,95.303 
			62.872,99.607 65.136,92.643 59.211,88.338 66.533,88.338 		"/>
	</g>
	<g>
		<polygon fill="#000000" points="83.482,69.443 85.746,76.408 93.068,76.408 87.144,80.715 89.407,87.68 83.482,83.375 
			77.558,87.68 79.821,80.715 73.896,76.408 81.219,76.408 		"/>
	</g>
	<g>
		<polygon fill="#000000" points="91.591,52.455 93.854,59.42 101.177,59.42 95.252,63.725 97.516,70.689 91.591,66.385 
			85.666,70.689 87.93,63.725 82.005,59.42 89.327,59.42 		"/>
	</g>
	<g>
		<polygon fill="#000000" points="91.672,33.662 93.936,40.627 101.258,40.627 95.333,44.932 97.597,51.896 91.672,47.592 
			85.747,51.896 88.011,44.932 82.086,40.627 89.408,40.627 		"/>
	</g>
	<g>
		<polygon fill="#000000" points="83.712,16.611 85.976,23.576 93.298,23.576 87.373,27.881 89.637,34.846 83.712,30.541 
			77.787,34.846 80.051,27.881 74.126,23.576 81.448,23.576 		"/>
	</g>
	<g>
		<polygon fill="#000000" points="69.137,4.57 71.4,11.535 78.723,11.535 72.798,15.842 75.062,22.807 69.137,18.502 63.212,22.807 
			65.476,15.842 59.551,11.535 66.873,11.535 		"/>
	</g>
	<g>
		<polygon fill="#000000" points="50.669,0 52.933,6.965 60.255,6.965 54.33,11.27 56.594,18.234 50.669,13.93 44.744,18.234 
			47.008,11.27 41.083,6.965 48.405,6.965 		"/>
	</g>
</g>
</svg>
