<?xml version="1.0" encoding="utf-8"?>
<!-- Generator: Adobe Illustrator 16.0.0, SVG Export Plug-In . SVG Version: 6.00 Build 0)  -->
<!DOCTYPE svg PUBLIC "-//W3C//DTD SVG 1.1//EN" "http://www.w3.org/Graphics/SVG/1.1/DTD/svg11.dtd">
<svg version="1.1" id="Layer_1" xmlns="http://www.w3.org/2000/svg" xmlns:xlink="http://www.w3.org/1999/xlink" x="0px" y="0px"
	 width="114.615px" height="101.678px" viewBox="0 0 114.615 101.678" enable-background="new 0 0 114.615 101.678"
	 xml:space="preserve">
<path fill="none" stroke="#FFFFFF" stroke-width="7" stroke-miterlimit="10" d="M67.349,98.177h15.667H96.16
	c1.105-0.004,2.003-0.9,2.007-2.007V59.327h10.942c1.112-0.005,2.012-0.91,2.008-2.022c-0.002-0.528-0.213-1.034-0.583-1.409
	l-51.8-51.801c-0.433-0.436-1.042-0.65-1.651-0.582c-0.454,0.052-0.877,0.258-1.198,0.582l-51.8,51.801
	c-0.783,0.79-0.776,2.066,0.015,2.85c0.376,0.37,0.882,0.58,1.41,0.582h10.942V96.17c0.004,1.106,0.899,2.003,2.007,2.007H32.09
	h14.727V65.556h20.532V98.177z"/>
</svg>
