<?xml version="1.0" encoding="utf-8"?>
<!-- Generator: Adobe Illustrator 16.0.0, SVG Export Plug-In . SVG Version: 6.00 Build 0)  -->
<!DOCTYPE svg PUBLIC "-//W3C//DTD SVG 1.1//EN" "http://www.w3.org/Graphics/SVG/1.1/DTD/svg11.dtd">
<svg version="1.1" id="Layer_1" xmlns="http://www.w3.org/2000/svg" xmlns:xlink="http://www.w3.org/1999/xlink" x="0px" y="0px"
	 width="52.336px" height="92.883px" viewBox="0 0 52.336 92.883" enable-background="new 0 0 52.336 92.883" xml:space="preserve">
<g>
	<polygon fill="#000000" points="6.959,78.176 0.775,75.25 0,92.883 13.139,81.1 	"/>
	<path fill="#000000" d="M4.868,54.645c-1.351,2.852-2.329,5.602-2.221,10.615c0.413-3.205,1.184-4.541,3.099-3.635
		c1.992,0.943,2.719,2.947,2.345,4.801c1.422-1.352,3.076-2.006,4.956-1.117s2.422,2.584,2.277,4.541
		c1.193-1.467,3.208-2.174,5.202-1.23c1.915,0.906,1.368,2.35-0.847,4.699c3.944-3.094,5.451-5.596,6.799-8.449
		c0.373-0.787,0.605-1.273,0.605-1.273l-4.503-2.133l0.519-1.096l4.503,2.131l0.547-1.154l-4.503-2.133l0.519-1.096l4.503,2.131
		l0.584-1.236l-7.973-3.773l0.592-1.252l7.975,3.773l0.435-0.918l-4.504-2.131l0.519-1.098l4.504,2.133l0.547-1.156l-4.504-2.131
		l0.519-1.096l4.504,2.131l0.546-1.154l-4.503-2.133l0.519-1.096l4.504,2.131l0.546-1.154l-4.503-2.133l0.519-1.096l4.503,2.133
		l0.547-1.156l-7.976-3.773l0.521-1.096l7.974,3.773l0.547-1.156l-4.503-2.131l0.519-1.096l4.503,2.131l0.547-1.156l-4.504-2.131
		l0.52-1.096l4.503,2.131l0.547-1.154l-4.504-2.131l0.519-1.098l4.504,2.131l0.547-1.154l-4.504-2.131l0.519-1.096l4.504,2.129
		l0.546-1.152l-7.974-3.773l0.519-1.098l7.975,3.773l0.547-1.154l-4.504-2.133l0.519-1.096l4.503,2.131l0.547-1.154l-4.503-2.131
		l0.519-1.098l4.504,2.133l0.546-1.156l-4.503-2.131l0.519-1.098l4.503,2.133l0.547-1.156l-4.504-2.131l0.52-1.096l4.503,2.131
		l0.547-1.154l-7.973-3.773l0.519-1.098l7.973,3.773l0.547-1.154l-4.504-2.132l0.519-1.097l4.504,2.131l0.546-1.153l-4.503-2.132
		l0.519-1.097l4.504,2.13l0.547-1.153l-4.504-2.132l0.519-1.097l4.503,2.132l0.547-1.154l-4.503-2.133l0.519-1.096l4.504,2.131
		l0.546-1.154l-7.965-3.791l0.519-1.098l7.965,3.792l1.297-2.737L30.725,0L4.868,54.645z"/>
</g>
</svg>
