<?xml version="1.0" encoding="utf-8"?>
<!-- Generator: Adobe Illustrator 16.0.0, SVG Export Plug-In . SVG Version: 6.00 Build 0)  -->
<!DOCTYPE svg PUBLIC "-//W3C//DTD SVG 1.1//EN" "http://www.w3.org/Graphics/SVG/1.1/DTD/svg11.dtd">
<svg version="1.1" id="Layer_1" xmlns="http://www.w3.org/2000/svg" xmlns:xlink="http://www.w3.org/1999/xlink" x="0px" y="0px"
	 width="116.946px" height="70.726px" viewBox="0 0 116.946 70.726" enable-background="new 0 0 116.946 70.726"
	 xml:space="preserve">
<g>
	<g>
		<path fill="#000000" d="M52.115,42.093"/>
		<path fill="#000000" d="M68.215,48.458"/>
		<g>
			<path fill="#000000" d="M114.139,10.454c-0.777-3.909-3.27-5.467-7.025-7.022c-3.668-1.54-12.496-3.37-19.021-3.427
				C81.557,0.062,72.73,1.892,69.033,3.433c-3.728,1.555-6.22,3.113-6.984,7.021L59.24,32.032v29.77h4.84v4.643
				c-0.02,5.709,8.305,5.709,8.311,0v-4.643h15.372h0.038h15.998v4.643c-0.01,5.709,8.316,5.709,8.311,0v-4.643h4.837v-29.77
				L114.139,10.454z M76.213,5.46h11.588h12.174c2.323-0.006,2.323,3.502,0,3.514H87.763h-11.55
				C73.877,8.962,73.877,5.454,76.213,5.46z M68.215,52.478c-2.194-0.012-3.983-1.799-3.982-4.02
				c-0.001-2.191,1.788-3.979,3.982-3.979c2.218,0,4.006,1.787,4.018,3.979C72.221,50.679,70.433,52.466,68.215,52.478z
				 M87.801,34.294H66.615c-2.07,0.02-2.504-1.471-2.302-2.965l2.184-15.686c0.302-1.887,0.945-3.141,3.435-3.16h17.832h18.494
				c2.473,0.02,3.119,1.271,3.433,3.16l2.185,15.686c0.19,1.494-0.245,2.984-2.301,2.965H87.801z M107.934,52.478
				c-2.192-0.012-3.98-1.799-3.98-4.02c0-2.191,1.788-3.979,3.98-3.979c2.22,0,4.01,1.787,4.02,3.979
				C111.943,50.679,110.153,52.466,107.934,52.478z"/>
			<path fill="#000000" d="M87.801,0c0.096,0,0.195,0.004,0.291,0.005C88.19,0.004,88.29,0,88.387,0H87.801z"/>
		</g>
		<path fill="#000000" d="M48.785,41.241l-4.396-11.359c-0.822-2.174-2.621-4.023-6.022-4.039h-6.201H21.562h-6.31
			c-3.387,0.016-5.185,1.865-6.021,4.039L4.832,41.241C3.085,41.466-0.006,43.517,0,47.405v14.461h4.293v4.617
			c-0.014,5.689,8.041,5.623,8.04,0v-4.617h14.495h14.458v4.617c0.019,5.623,8.071,5.689,8.077,0v-4.617h4.293V47.405
			C53.643,43.517,50.55,41.466,48.785,41.241z M8.439,53.14c-2.059,0.006-3.725-1.709-3.715-3.82
			c-0.01-2.125,1.656-3.842,3.715-3.824c2.049-0.018,3.715,1.699,3.712,3.824C12.154,51.431,10.488,53.144,8.439,53.14z
			 M26.828,41.134h-0.037H9.411l3.315-8.943c0.402-1.27,1.023-2.178,2.491-2.201h11.573h0.037h11.611
			c1.445,0.023,2.066,0.932,2.486,2.201l3.316,8.943H26.828z M45.217,53.14c-2.07,0.006-3.737-1.709-3.749-3.82
			c0.012-2.125,1.679-3.842,3.749-3.824c2.036-0.018,3.702,1.699,3.715,3.824C48.919,51.431,47.253,53.144,45.217,53.14z"/>
	</g>
	<path fill="#000000" d="M46.099,62.286"/>
</g>
</svg>
