<?xml version="1.0" encoding="utf-8"?>
<!-- Generator: Adobe Illustrator 16.0.0, SVG Export Plug-In . SVG Version: 6.00 Build 0)  -->
<!DOCTYPE svg PUBLIC "-//W3C//DTD SVG 1.1//EN" "http://www.w3.org/Graphics/SVG/1.1/DTD/svg11.dtd">
<svg version="1.1" id="Layer_1" xmlns="http://www.w3.org/2000/svg" xmlns:xlink="http://www.w3.org/1999/xlink" x="0px" y="0px"
	 width="101.533px" height="63.717px" viewBox="0 0 101.533 63.717" enable-background="new 0 0 101.533 63.717"
	 xml:space="preserve">
<g>
	<path fill="#FFFFFF" d="M81.188,30.765c1.129,0,2.184-0.064,3.211-0.162c-0.023-0.006-0.016-0.02-0.047-0.023
		c-5.443-0.834-10.582-9.094-12.775-10.111c-1.875-0.871-6.087,2.418-9.366,5.406c0.039,0.168,0.196,2.117,0.196,2.117
		C68.646,29.423,75.622,30.765,81.188,30.765z"/>
	<path fill="#FFFFFF" d="M61.286,27.741c-0.035-0.459-0.094-1.004-0.213-1.709c-0.549-3.293-4.389-11.287-7.289-11.365
		c-0.012-0.002-0.022-0.002-0.033-0.002c-2.209,0-8.309,5.881-11.215,8.816c4.191,0.715,8.707,1.807,13.469,2.979
		C57.759,26.892,59.522,27.321,61.286,27.741z"/>
	<path fill="#FFFFFF" d="M38.499,56.948c-0.534-0.334-1.441-1.352-2.995-2.518c-1.57-0.596-3.148-1.23-4.71-1.887
		c0.357,1.221,1.352,4.59,1.984,6.373c0.784,2.201,5.408,6.967,4.467,3.676C36.306,59.3,39.128,57.341,38.499,56.948z"/>
	<path fill="#FFFFFF" d="M83.181,53.032c-5.092,1.967-10.715,3.25-15.879,4.086c4.409,2.783,5.607,4.361,9.372,2.117
		c4.076-2.428,6.818-5.094,8.073-5.25C85.909,53.841,84.466,53.349,83.181,53.032z"/>
	<path fill="#FFFFFF" d="M99.567,20.323C97.16,12.167,93.376,4.198,85.922,0.321c-1.957-1.02-2.192,0.626-2.036,1.646
		c0.156,1.02,1.107,6.898,0.514,10.111c-0.594,3.215-2.475,8.291-2.943,9.123c-0.472,0.834-0.236,2.01,1.41,1.773
		c1.32-0.188,8.213,0.91,10.922,1.666l1.951,0.469c0.656,0.158,1.311,0.523,1.383,0.678c0,0.002-0.021,0.105-0.21,0.309
		c-3.515,3.773-8.658,5.609-15.724,5.609c-7.825,0-16.765-2.203-25.408-4.332c-5.609-1.381-10.906-2.686-15.665-3.336
		c-4.485-0.613-9.01-0.924-13.444-0.924c-10.128,0-17.508,1.6-21.009,2.553c-3.471,0.945-3.706,1.717-3.784,1.969
		c-0.169,0.549-0.47,1.529,6.541,7.516c-0.641,0.012-1.348,0.031-2.061,0.049c-1.307,0.035-2.639,0.07-3.643,0.07
		c-1.016,0-1.284-0.037-1.344-0.049c-0.104-0.021-0.191-0.029-0.271-0.029l-0.746,0.066l-0.246,0.566
		c-0.215,0.5-0.461,1.066,2.982,4.727l0.223,0.236l0.326,0.049c0.076,0.012,7.956,1.209,17.587,6.025
		c10.407,5.201,23.908,10.453,30.612,10.453l0.445-0.01c6.091-0.215,26.86-1.529,38.321-9.332
		C104.376,38.599,102.228,23.368,99.567,20.323z M21.171,30.21c-1.363,0-2.469-1.105-2.469-2.469s1.105-2.471,2.469-2.471
		s2.469,1.107,2.469,2.471S22.534,30.21,21.171,30.21z"/>
	<path fill="#FFFFFF" d="M20.526,25.78c-1.082,0-1.961,0.877-1.961,1.959c0,1.084,0.879,1.959,1.961,1.959
		c1.081,0,1.96-0.875,1.96-1.959C22.486,26.657,21.607,25.78,20.526,25.78z M20.183,28.694c-0.527,0-0.953-0.426-0.953-0.953
		s0.426-0.955,0.953-0.955s0.953,0.428,0.953,0.955S20.71,28.694,20.183,28.694z"/>
</g>
</svg>
