<?xml version="1.0" encoding="utf-8"?>
<!-- Generator: Adobe Illustrator 16.0.0, SVG Export Plug-In . SVG Version: 6.00 Build 0)  -->
<!DOCTYPE svg PUBLIC "-//W3C//DTD SVG 1.1//EN" "http://www.w3.org/Graphics/SVG/1.1/DTD/svg11.dtd">
<svg version="1.1" id="Layer_1" xmlns="http://www.w3.org/2000/svg" xmlns:xlink="http://www.w3.org/1999/xlink" x="0px" y="0px"
	 width="90.167px" height="90.166px" viewBox="0 0 90.167 90.166" enable-background="new 0 0 90.167 90.166" xml:space="preserve">
<g>
	<path fill="#FFFFFF" d="M45.085,0L45.085,0C20.185,0,0,20.184,0,45.082c0,24.9,20.185,45.084,45.084,45.084
		c9.904,0,19.058-3.201,26.495-8.615L45.085,45.082V0z"/>
	<path fill="#FFFFFF" d="M46.256,1.186c23.673,0.623,42.74,20.076,42.74,43.896c0,13.602-6.396,26.527-17.168,34.818L46.256,44.702
		V1.186 M45.085,0v45.082l26.494,36.469c11.263-8.197,18.588-21.473,18.588-36.469C90.167,20.184,69.983,0,45.085,0L45.085,0z"/>
</g>
</svg>
