<?xml version="1.0" encoding="utf-8"?>
<!-- Generator: Adobe Illustrator 16.0.0, SVG Export Plug-In . SVG Version: 6.00 Build 0)  -->
<!DOCTYPE svg PUBLIC "-//W3C//DTD SVG 1.1//EN" "http://www.w3.org/Graphics/SVG/1.1/DTD/svg11.dtd">
<svg version="1.1" id="Layer_1" xmlns="http://www.w3.org/2000/svg" xmlns:xlink="http://www.w3.org/1999/xlink" x="0px" y="0px"
	 width="78.93px" height="98.469px" viewBox="0 0 78.93 98.469" enable-background="new 0 0 78.93 98.469" xml:space="preserve">
<g>
	<path fill="#000000" d="M40.995,37.713v14.346c1.834,1.309,3.252,2.598,4.258,3.863v-12.51c0-2.053-0.196-3.449-0.59-4.193
		C44.052,38.215,42.829,37.713,40.995,37.713z"/>
	<path fill="#000000" d="M37.458,22.646L36.409,21.6v9.432c0,1.748,0.175,3.037,0.524,3.865c0.611,1.178,1.638,1.898,3.079,2.16
		V24.939l-1.18-0.852L37.458,22.646z"/>
	<path fill="#000000" d="M0,0c0,0,0,56.611,0,73.08s39.466,12.008,39.466,25.389c0-13.381,39.464-8.92,39.464-25.389
		s0-73.08,0-73.08C51.483,0,27.448,0,0,0z M58.352,53.826l1.9,0.066v1.244l-2.16-0.066c-4.674-0.131-9.26,1.049-13.756,3.537
		c-2.577,1.441-4.477,4.084-5.698,7.926c-0.961-1.877-1.922-3.252-2.883-4.125c-0.875-0.873-2.227-1.77-4.062-2.686
		c-1.79-0.961-3.8-1.441-6.025-1.441c-1.354,0-2.522,0.426-3.505,1.277s-1.475,1.932-1.475,3.242c0,2.662,1.396,4.541,4.192,5.633
		c2.663,1.004,6.376,1.506,11.136,1.506c7.686,0,11.529-2.729,11.529-8.188h1.243c0,4.105-1.485,7.379-4.453,9.826
		c-2.796,2.184-6.333,3.275-10.612,3.275c-3.799,0-7.096-1.137-9.891-3.406c-2.97-2.447-4.453-5.502-4.453-9.172
		c0-3.754,1.199-6.768,3.603-9.039c2.444-2.314,5.544-3.471,9.301-3.471c2.4,0,4.978,0.59,7.729,1.768V37.844
		c-2.533,0.611-4.487,1.605-5.862,2.98c-1.377,1.375-2.457,3.33-3.242,5.863c-0.524-1.791-1.354-3.494-2.49-5.109
		c-1.44-1.965-2.947-2.949-4.52-2.949c-0.786,0-1.856,0.568-3.21,1.703l-0.654-0.982c1.09-0.697,1.975-1.275,2.653-1.734
		c0.675-0.459,1.123-0.842,1.343-1.146c0.828-0.961,1.244-2.467,1.244-4.52v-7.6l-1.441,0.066c-0.568,0.043-1.616-0.066-3.145-0.328
		v-1.18l2.883,0.197c4.148,0.307,7.751-0.459,10.808-2.293c1.091-0.697,2.063-1.363,2.915-1.997
		c0.852-0.633,1.582-1.255,2.194-1.867c1.267-1.266,2.468-2.991,3.603-5.175c1.877,4.979,4.301,7.467,7.271,7.467
		c1.222,0,2.141-0.523,2.75-1.571c0.307-0.567,0.633-1.659,0.982-3.274h1.115c0,3.318-0.939,6.113-2.816,8.383
		c-1.966,2.402-4.586,3.604-7.861,3.604c-1.136,0-2.315-0.35-3.537-1.049v11.725c2.401-0.172,4.629-1.592,6.682-4.256
		c1.396-1.703,2.379-3.494,2.947-5.373c0.742,1.879,1.919,3.758,3.537,5.635c1.441,1.703,2.51,2.555,3.209,2.555
		c0.873,0,1.836-0.459,2.883-1.377l0.654,1.115c-0.742,0.48-1.332,0.861-1.768,1.146c-0.436,0.283-0.744,0.469-0.918,0.555
		c-0.916,0.744-1.484,1.617-1.701,2.621c-0.045,0.262-0.078,0.602-0.1,1.016c-0.021,0.416-0.033,0.906-0.033,1.475v11.725
		L58.352,53.826z"/>
</g>
</svg>
