<?xml version="1.0" encoding="utf-8"?>
<!-- Generator: Adobe Illustrator 16.0.0, SVG Export Plug-In . SVG Version: 6.00 Build 0)  -->
<!DOCTYPE svg PUBLIC "-//W3C//DTD SVG 1.1//EN" "http://www.w3.org/Graphics/SVG/1.1/DTD/svg11.dtd">
<svg version="1.1" id="Layer_1" xmlns="http://www.w3.org/2000/svg" xmlns:xlink="http://www.w3.org/1999/xlink" x="0px" y="0px"
	 width="95.894px" height="88.316px" viewBox="0 0 95.894 88.316" enable-background="new 0 0 95.894 88.316" xml:space="preserve">
<g>
	<path fill="#000000" d="M59.22,29.611c0.002-2.924-1.56-5.479-3.891-6.893c1.311-2.389,1.386-5.381-0.076-7.912
		c-1.461-2.535-4.09-3.965-6.815-4.023c-0.062-2.725-1.491-5.354-4.023-6.816c-2.531-1.463-5.524-1.387-7.912-0.074
		C35.087,1.562,32.534,0,29.61,0c-2.925,0-5.477,1.562-6.891,3.893c-2.391-1.311-5.382-1.387-7.914,0.074
		c-2.531,1.463-3.963,4.092-4.021,6.816c-2.727,0.061-5.354,1.49-6.816,4.023c-1.463,2.531-1.388,5.523-0.076,7.914
		C1.562,24.135,0,26.688,0,29.611s1.562,5.479,3.892,6.891c-1.312,2.389-1.387,5.383,0.076,7.914
		c1.462,2.533,4.091,3.965,6.816,4.021c0.059,2.727,1.49,5.355,4.021,6.818c2.532,1.461,5.523,1.387,7.914,0.074
		c1.415,2.33,3.968,3.891,6.891,3.891c2.924,0.002,5.479-1.561,6.892-3.891c2.391,1.311,5.382,1.385,7.913-0.074
		c2.533-1.463,3.965-4.092,4.022-6.818c2.726-0.059,5.354-1.49,6.817-4.021s1.387-5.525,0.074-7.914
		C57.66,35.088,59.22,32.533,59.22,29.611z"/>
	<rect x="26.766" y="57.125" fill="#000000" width="5.585" height="31.191"/>
	<path fill="#000000" d="M79.372,59.166c0,0,6.794,0,8.939,0c-3.589,0-11.941-16.25-11.941-16.25h4.565c0,0-9.46-13.703-9.46-29.17
		c0,15.467-9.459,29.17-9.459,29.17h4.564c0,0-8.352,16.25-11.941,16.25c2.146,0,8.939,0,8.939,0S51.757,75.561,47.058,75.561
		c2.625,0,15.227,0,21.338,0v12.756h6.16V75.561c6.112,0,18.713,0,21.338,0C91.194,75.561,79.372,59.166,79.372,59.166z"/>
</g>
</svg>
