<?xml version="1.0" standalone="no"?>
<!DOCTYPE svg PUBLIC "-//W3C//DTD SVG 20010904//EN"
 "http://www.w3.org/TR/2001/REC-SVG-20010904/DTD/svg10.dtd">
<svg version="1.0" xmlns="http://www.w3.org/2000/svg"
 width="1191.000000pt" height="1191.000000pt" viewBox="0 0 1191.000000 1191.000000"
 preserveAspectRatio="xMidYMid meet">
<metadata>
Created by potrace 1.11, written by Peter Selinger 2001-2013
</metadata>
<g transform="translate(0.000000,1191.000000) scale(0.100000,-0.100000)"
fill="#000000" stroke="none">
<path d="M5785 11510 c-96 -15 -194 -48 -280 -95 -44 -24 -978 -574 -2075
-1223 -1221 -722 -2020 -1201 -2060 -1234 -126 -104 -227 -254 -289 -431 l-36
-102 0 -2475 0 -2475 29 -85 c57 -169 138 -304 247 -410 49 -48 121 -98 275
-190 l209 -126 310 19 c171 11 314 23 318 27 5 4 -168 101 -383 216 -215 115
-417 229 -448 254 -104 84 -207 236 -238 353 -11 41 -14 500 -20 2421 -6 2212
-5 2375 10 2435 32 121 127 278 209 345 23 19 931 499 2017 1066 2286 1195
2113 1106 2193 1127 86 22 252 20 337 -5 76 -21 4119 -2124 4190 -2178 94 -72
193 -230 225 -361 14 -56 14 -281 -5 -2427 -23 -2596 -16 -2408 -82 -2526 -91
-163 -183 -245 -432 -386 -485 -273 -577 -326 -573 -330 2 -2 143 -13 314 -24
l310 -20 192 112 c106 62 223 138 259 168 123 103 233 276 289 456 l28 89 3
2410 c2 1766 0 2430 -8 2483 -32 206 -161 435 -319 567 -61 51 -4115 2456
-4207 2496 -129 55 -359 82 -509 59z"/>
<path d="M2743 9070 c-12 -5 -28 -19 -36 -32 -10 -15 -84 -517 -213 -1434
-191 -1365 -197 -1412 -181 -1438 17 -25 20 -26 126 -26 160 0 145 -31 211
439 30 209 58 380 62 379 4 -2 152 -178 328 -393 176 -214 330 -398 341 -407
18 -15 42 -18 155 -18 126 0 134 1 148 22 37 53 35 55 -334 480 -193 222 -349
406 -348 409 2 4 179 149 393 323 215 174 400 328 413 342 24 27 29 73 10 92
-8 8 -58 12 -159 12 l-147 0 -44 -33 c-24 -18 -195 -158 -382 -310 -186 -153
-340 -276 -342 -275 -1 2 53 406 122 898 68 492 124 903 124 913 0 10 -11 29
-25 42 -22 23 -32 25 -112 24 -48 0 -98 -4 -110 -9z"/>
<path d="M5678 8736 c-14 -8 -167 -94 -338 -191 -232 -132 -314 -183 -320
-201 -14 -35 28 -144 62 -163 23 -13 46 -5 380 138 196 84 363 160 372 170 22
24 21 32 -20 138 -46 118 -74 141 -136 109z"/>
<path d="M4270 8561 c-74 -23 -117 -61 -149 -131 -55 -121 6 -254 123 -267 89
-10 183 43 227 128 27 54 25 142 -4 194 -36 66 -122 98 -197 76z"/>
<path d="M7631 8357 c-48 -24 -59 -54 -81 -227 -12 -91 -26 -198 -32 -237
l-10 -73 -100 0 c-55 0 -108 -5 -120 -11 -27 -15 -46 -64 -54 -141 -6 -58 -4
-68 15 -87 19 -19 32 -21 121 -21 l101 0 -6 -32 c-3 -18 -37 -258 -76 -533
-83 -585 -85 -631 -27 -745 36 -70 95 -120 166 -140 115 -32 302 0 472 81 104
49 140 81 140 123 -1 48 -70 180 -97 184 -11 2 -56 -15 -100 -36 -204 -103
-313 -94 -313 25 0 26 32 279 71 561 l72 512 219 0 c131 0 227 4 239 10 29 16
46 58 54 137 6 64 5 73 -14 92 -20 20 -31 21 -241 21 -121 0 -220 4 -220 9 0
5 14 102 30 216 47 328 48 325 -96 325 -51 0 -99 -6 -113 -13z"/>
<path d="M5120 7839 c-371 -97 -646 -445 -690 -873 -27 -266 56 -513 229 -686
80 -80 171 -135 270 -164 71 -21 230 -21 324 0 95 21 256 100 337 166 318 262
456 751 315 1123 -80 213 -265 390 -460 440 -83 21 -232 19 -325 -6z m275
-290 c114 -43 215 -173 251 -325 20 -84 15 -268 -10 -359 -23 -87 -98 -231
-153 -297 -112 -135 -263 -208 -403 -195 -249 22 -409 329 -346 661 70 362
394 615 661 515z"/>
<path d="M6464 7840 c-147 -38 -247 -113 -307 -227 -46 -90 -60 -159 -55 -275
3 -83 8 -104 37 -164 46 -93 155 -200 287 -278 238 -142 300 -212 292 -332
-14 -227 -306 -273 -559 -88 -73 53 -94 46 -163 -50 -28 -39 -46 -75 -46 -92
0 -56 149 -164 285 -207 59 -19 93 -22 220 -22 131 0 159 3 223 24 230 75 371
267 372 503 0 121 -47 228 -142 320 -58 57 -121 100 -277 193 -120 71 -184
122 -206 165 -52 101 -6 216 104 255 88 31 199 14 344 -51 100 -46 116 -41
180 51 58 85 62 123 16 166 -44 41 -160 94 -246 113 -99 22 -268 20 -359 -4z"/>
<path d="M4091 7793 c-26 -27 -29 -40 -84 -433 -136 -976 -421 -2985 -424
-2989 -1 -2 -49 40 -105 94 -502 479 -1094 741 -1733 769 l-130 5 90 -15 c202
-32 379 -96 588 -209 289 -158 552 -359 817 -624 237 -237 430 -492 537 -708
26 -52 55 -99 65 -104 23 -12 54 -4 62 16 3 8 104 716 226 1572 121 857 251
1778 290 2047 38 270 70 509 70 531 0 66 -17 75 -139 75 -99 0 -104 -1 -130
-27z"/>
<path d="M8500 7793 l-31 -28 -66 -470 c-58 -408 -67 -490 -67 -625 -1 -172 8
-227 57 -330 53 -113 150 -191 280 -226 69 -18 245 -18 327 2 87 20 211 81
290 143 l65 50 11 -70 c7 -38 18 -76 24 -84 9 -11 34 -15 87 -15 65 0 77 3 98
25 14 13 25 29 25 34 0 6 48 347 106 758 58 411 106 765 106 786 1 66 -19 77
-137 77 -96 0 -104 -2 -127 -25 -14 -14 -28 -38 -31 -53 -3 -15 -40 -273 -83
-575 l-78 -547 -60 -61 c-118 -118 -234 -177 -366 -186 -64 -5 -84 -2 -128 17
-107 46 -162 155 -162 321 0 57 24 259 65 547 36 252 65 473 65 490 0 59 -26
72 -140 72 -95 0 -101 -1 -130 -27z"/>
<path d="M7130 5794 c-179 -102 -331 -192 -337 -201 -20 -26 -15 -63 15 -123
21 -44 32 -56 54 -58 29 -3 698 276 730 305 25 23 23 49 -13 144 -36 93 -57
119 -96 118 -17 0 -156 -73 -353 -185z"/>
<path d="M8193 5713 c-47 -5 -89 -39 -97 -81 -3 -15 -17 -115 -31 -222 -14
-107 -28 -205 -31 -217 -4 -22 -8 -23 -134 -23 -162 0 -172 -6 -196 -122 -15
-78 -11 -110 20 -130 6 -4 68 -8 139 -8 98 0 127 -3 127 -13 0 -7 -32 -233
-71 -503 -82 -562 -89 -666 -49 -768 54 -141 192 -206 376 -177 125 19 301 87
382 148 25 19 32 31 32 59 0 43 -62 182 -85 190 -10 4 -57 -12 -113 -39 -123
-57 -154 -67 -212 -67 -66 0 -91 22 -97 86 -2 29 26 259 70 564 l73 515 417 3
417 2 -5 -22 c-2 -13 -37 -250 -76 -528 -59 -423 -70 -520 -66 -600 7 -153 58
-240 172 -292 73 -33 218 -31 336 5 177 54 309 131 309 182 0 36 -70 184 -90
190 -11 3 -58 -13 -112 -39 -110 -52 -156 -66 -220 -66 -69 0 -88 22 -88 103
0 34 31 285 70 557 38 272 70 498 70 503 0 4 100 7 223 7 184 0 226 3 244 15
24 17 37 57 48 142 6 47 4 55 -19 78 l-25 25 -216 0 c-118 0 -215 3 -215 8 0
4 14 111 32 239 35 252 34 280 -13 297 -14 5 -65 5 -114 1 -77 -6 -92 -10
-115 -34 -29 -29 -28 -24 -71 -343 l-22 -168 -418 0 -418 0 4 28 c3 15 19 126
36 246 30 218 30 219 11 245 -17 23 -26 26 -83 27 -35 0 -83 -1 -106 -3z"/>
<path d="M2357 5699 c-61 -14 -112 -45 -156 -95 -52 -59 -71 -122 -71 -234 l0
-86 105 -25 105 -25 0 103 c0 93 2 104 24 130 l24 28 606 3 605 2 6 33 c9 57
25 162 25 170 0 10 -1227 7 -1273 -4z"/>
<path d="M4216 5679 c-10 -55 -26 -163 -26 -171 0 -3 56 -8 125 -10 114 -3
126 -5 147 -26 l23 -23 0 -1025 0 -1026 -28 -24 -28 -24 -1018 0 c-988 0
-1019 1 -1042 19 l-24 19 -5 743 -5 744 -102 53 -103 53 0 -800 c0 -781 0
-802 20 -855 24 -62 80 -125 142 -158 l43 -23 1059 -3 c1186 -3 1114 -7 1201
70 25 22 58 64 73 92 l27 51 0 1065 0 1065 -28 57 c-32 65 -80 112 -146 141
-36 16 -73 22 -173 25 l-127 4 -5 -33z"/>
<path d="M5990 5204 c-103 -20 -231 -83 -316 -155 l-59 -50 -8 48 c-14 82 -17
91 -33 107 -20 21 -125 21 -164 1 -16 -8 -32 -25 -36 -37 -4 -13 -55 -369
-114 -793 -80 -581 -104 -777 -97 -798 12 -36 41 -47 128 -47 80 0 132 18 150
52 7 12 48 277 91 587 l78 564 35 38 c151 167 307 229 465 183 103 -30 125
-29 147 3 39 54 93 173 93 202 0 36 -26 63 -78 80 -38 13 -238 23 -282 15z"/>
<path d="M6958 5200 c-286 -49 -538 -257 -663 -550 -93 -218 -118 -478 -66
-685 12 -44 42 -123 67 -175 39 -78 62 -110 128 -176 164 -164 343 -206 606
-144 113 27 296 117 356 175 40 38 46 48 40 72 -12 46 -88 138 -118 141 -16 2
-60 -16 -119 -47 -136 -72 -219 -94 -327 -89 -107 5 -164 32 -238 109 -82 88
-134 223 -134 354 l0 60 248 0 c218 1 259 4 351 24 217 46 366 130 448 249 54
79 73 144 73 247 0 227 -130 380 -366 430 -73 16 -208 18 -286 5z m203 -270
c93 -26 149 -93 149 -178 0 -135 -127 -229 -363 -267 -93 -15 -367 -20 -399
-7 -15 7 -15 11 2 59 60 170 204 320 365 380 66 24 183 30 246 13z"/>
<path d="M5340 2650 c-983 -17 -2305 -78 -3428 -160 -151 -11 -280 -20 -288
-20 -12 0 -14 -44 -14 -264 l0 -263 -42 -6 c-24 -3 -386 -34 -805 -69 -420
-34 -763 -65 -763 -68 0 -3 192 -84 428 -180 235 -95 444 -181 464 -190 l38
-17 -465 -274 c-272 -160 -458 -276 -448 -278 10 -2 469 34 1020 80 l1003 84
2 210 3 210 125 7 c341 19 1167 59 1505 73 1653 65 2747 68 4325 10 635 -24
1811 -81 1858 -91 22 -4 22 -5 22 -212 l0 -207 998 -84 c549 -46 1006 -82
1016 -80 12 3 -157 108 -447 279 l-465 274 464 190 c255 104 464 192 464 195
0 4 -343 35 -762 70 -420 35 -782 65 -805 68 l-43 6 0 263 c0 205 -3 264 -12
264 -7 0 -168 11 -358 25 -1664 119 -3339 175 -4590 155z m-322 -212 c28 -28
7 -78 -33 -78 -27 0 -45 18 -45 47 0 36 52 57 78 31z m2335 -19 c91 -25 142
-117 117 -210 -18 -68 -63 -130 -165 -227 l-93 -90 134 -7 134 -7 0 -31 0 -30
-82 6 c-46 4 -129 7 -185 7 -100 0 -103 1 -103 22 0 16 38 60 123 143 135 132
167 181 167 258 0 98 -92 144 -195 98 -38 -17 -50 -19 -57 -9 -14 24 -8 37 25
54 62 33 120 40 180 23z m-4170 -41 c3 -18 9 -97 13 -176 11 -227 5 -222 97
-99 74 101 79 105 120 109 23 3 43 4 44 4 1 -1 -32 -42 -73 -91 -41 -49 -74
-93 -74 -98 0 -7 103 -133 184 -224 l19 -23 -46 0 -47 0 -82 101 -83 100 -21
-27 c-19 -24 -21 -35 -16 -110 l5 -84 -37 0 c-22 0 -36 5 -36 13 0 6 -9 149
-20 317 -11 168 -20 306 -20 307 0 2 36 9 56 12 7 0 14 -14 17 -31z m4684 15
c75 -35 123 -172 109 -307 -20 -185 -89 -278 -206 -278 -79 0 -123 32 -162
117 -19 43 -23 67 -23 165 0 164 34 249 120 301 38 24 115 25 162 2z m403 -40
c0 -21 -28 -545 -30 -560 0 -2 -16 -3 -35 -3 -27 0 -35 4 -35 18 1 9 7 125 14
257 8 132 12 242 10 244 -3 3 -25 -5 -50 -17 -49 -24 -64 -22 -64 8 0 26 102
79 153 80 34 0 37 -2 37 -27z m453 1 c114 -7 117 -7 117 -30 0 -13 -66 -143
-147 -289 l-148 -265 -30 6 c-16 3 -32 8 -33 9 -2 2 60 115 137 252 l142 248
-28 6 c-15 4 -53 7 -84 8 -31 0 -84 4 -118 7 -60 7 -61 7 -61 37 l0 30 68 -6
c37 -4 120 -9 185 -13z m-3248 -98 c51 -34 60 -67 63 -248 l4 -168 -36 0 -36
0 0 123 c-1 67 -5 142 -9 166 -12 59 -48 94 -98 94 -50 0 -79 -16 -103 -56
-17 -28 -20 -51 -20 -178 l0 -146 -32 -7 c-17 -3 -32 -5 -34 -4 -1 2 -4 101
-6 221 l-3 217 33 0 c30 0 32 -2 32 -37 l0 -36 35 36 c54 56 145 66 210 23z
m438 23 c12 -6 34 -23 50 -37 l27 -26 0 32 c0 29 3 32 33 32 l32 0 -5 -247
c-4 -211 -8 -253 -22 -280 -50 -90 -182 -125 -307 -82 -29 10 -32 15 -26 38 9
34 7 33 48 16 20 -8 60 -15 89 -15 98 0 148 55 148 161 l0 51 -35 -31 c-42
-37 -70 -45 -134 -39 -65 6 -108 39 -139 106 -51 113 -11 257 87 309 48 25
118 30 154 12z m497 -5 c25 -10 48 -29 62 -53 21 -33 23 -50 26 -208 l4 -173
-31 0 c-27 0 -32 4 -38 31 l-6 30 -26 -25 c-63 -59 -164 -56 -216 6 -24 28
-27 38 -23 87 4 47 10 59 41 87 38 35 78 49 170 60 l58 7 -7 31 c-14 68 -70
96 -152 76 -60 -14 -65 -13 -74 10 -6 17 0 22 40 34 63 19 123 19 172 0z m440
-18 c0 -31 -3 -34 -38 -40 -67 -10 -102 -65 -102 -159 0 -35 -3 -98 -6 -140
l-7 -77 -35 0 -34 0 3 220 4 220 33 0 c32 0 32 -1 32 -47 l0 -48 26 39 c25 37
71 65 107 66 13 0 17 -8 17 -34z m-2102 -4 c49 -36 64 -88 70 -258 l5 -151
-34 -5 c-19 -3 -35 -5 -36 -4 -1 1 -5 69 -9 151 -4 93 -12 160 -20 177 -29 56
-86 73 -144 43 -52 -27 -60 -57 -60 -225 l0 -150 -33 0 -34 0 -6 152 c-4 83
-7 180 -7 215 l0 63 30 0 c27 0 30 -3 30 -29 0 -39 14 -46 30 -16 33 62 154
82 218 37z m282 -197 l0 -215 -35 0 -35 0 0 103 c0 56 -3 153 -7 215 l-6 112
41 0 42 0 0 -215z m-761 194 c26 -9 30 -15 25 -33 -9 -29 -8 -29 -49 -17 -72
20 -130 -11 -123 -66 3 -24 14 -34 90 -71 71 -35 89 -49 103 -79 56 -117 -75
-215 -228 -172 -28 7 -37 15 -33 26 3 8 6 20 6 27 0 10 13 9 58 -2 51 -13 61
-13 94 1 60 25 63 97 7 124 -13 6 -50 23 -82 38 -60 28 -87 62 -87 110 0 90
115 150 219 114z m-392 -45 c58 -46 83 -104 83 -189 -1 -144 -77 -225 -215
-225 -124 0 -205 88 -205 225 0 97 39 167 112 204 35 18 57 21 115 19 62 -3
77 -7 110 -34z"/>
<path d="M7738 2345 c-105 -59 -117 -399 -16 -469 40 -28 104 -14 132 29 42
64 62 264 35 357 -21 79 -91 117 -151 83z"/>
<path d="M5815 2226 c-112 -50 -126 -243 -22 -306 59 -37 124 -21 164 39 19
28 23 47 23 110 0 90 -21 134 -75 157 -42 17 -51 17 -90 0z"/>
<path d="M6325 2061 c-67 -16 -95 -45 -95 -98 1 -88 123 -105 177 -24 16 24
23 49 23 82 l0 49 -37 -1 c-21 -1 -51 -4 -68 -8z"/>
<path d="M3683 2170 c-89 -54 -96 -210 -13 -292 31 -31 45 -38 76 -38 117 0
180 146 119 274 -34 71 -116 97 -182 56z"/>
<path d="M4460 1419 c-285 -12 -410 -21 -410 -28 1 -14 1464 -908 1538 -938
115 -47 240 -66 392 -60 137 6 221 24 319 68 35 16 394 233 798 481 691 427
732 453 701 459 -18 4 -160 12 -316 19 l-283 11 -522 -245 c-287 -135 -549
-252 -582 -261 -75 -19 -240 -19 -320 0 -34 8 -291 122 -583 259 -288 135
-533 245 -545 244 -12 0 -96 -4 -187 -9z"/>
</g>
</svg>
