<?xml version="1.0" encoding="UTF-8"?>
<svg width="183px" height="38px" viewBox="0 0 183 38" version="1.1" xmlns="http://www.w3.org/2000/svg" xmlns:xlink="http://www.w3.org/1999/xlink">
    <!-- Generator: Sketch 43.1 (39012) - http://www.bohemiancoding.com/sketch -->
    <title>Kjóstu rétt Logo</title>
    <desc>Created with Sketch.</desc>
    <defs></defs>
    <g id="Symbols" stroke="none" stroke-width="1" fill="none" fill-rule="evenodd">
        <g id="Kjóstu-rétt-Logo">
            <path d="M9.15625,20.875 L6.71875,23.5 L6.71875,30 L2.03125,30 L2.03125,7.25 L6.71875,7.25 L6.71875,17.5625 L8.78125,14.734375 L14.578125,7.25 L20.34375,7.25 L12.265625,17.359375 L20.578125,30 L15,30 L9.15625,20.875 Z M26.828125,13.09375 L26.828125,30.921875 C26.828125,32.7864677 26.3333383,34.236974 25.34375,35.2734375 C24.3541617,36.309901 22.9270927,36.828125 21.0625,36.828125 C20.2812461,36.828125 19.5364619,36.7395842 18.828125,36.5625 L18.828125,32.984375 C19.3697944,33.0781255 19.843748,33.125 20.25,33.125 C21.6145902,33.125 22.296875,32.4010489 22.296875,30.953125 L22.296875,13.09375 L26.828125,13.09375 Z M21.9375,8.71875 C21.9375,8.04166328 22.1640602,7.48437719 22.6171875,7.046875 C23.0703148,6.60937281 23.6874961,6.390625 24.46875,6.390625 C25.2500039,6.390625 25.8671852,6.60937281 26.3203125,7.046875 C26.7734398,7.48437719 27,8.04166328 27,8.71875 C27,9.40625344 26.7682315,9.96874781 26.3046875,10.40625 C25.8411435,10.8437522 25.2291705,11.0625 24.46875,11.0625 C23.7083295,11.0625 23.0963565,10.8437522 22.6328125,10.40625 C22.1692685,9.96874781 21.9375,9.40625344 21.9375,8.71875 Z M29.65625,21.390625 C29.65625,19.7135333 29.9791634,18.2187566 30.625,16.90625 C31.2708366,15.5937434 32.2005148,14.5781286 33.4140625,13.859375 C34.6276102,13.1406214 36.0364503,12.78125 37.640625,12.78125 C39.9218864,12.78125 41.783847,13.4791597 43.2265625,14.875 C44.669278,16.2708403 45.4739575,18.1666547 45.640625,20.5625 L45.671875,21.71875 C45.671875,24.312513 44.9479239,26.3932213 43.5,27.9609375 C42.0520761,29.5286537 40.1093872,30.3125 37.671875,30.3125 C35.2343628,30.3125 33.2890698,29.5312578 31.8359375,27.96875 C30.3828052,26.4062422 29.65625,24.2812634 29.65625,21.59375 L29.65625,21.390625 Z M34.171875,21.71875 C34.171875,23.3229247 34.4739553,24.5494749 35.078125,25.3984375 C35.6822947,26.2474001 36.5468694,26.671875 37.671875,26.671875 C38.7656305,26.671875 39.6197886,26.2526084 40.234375,25.4140625 C40.8489614,24.5755166 41.15625,23.2343842 41.15625,21.390625 C41.15625,19.8177005 40.8489614,18.5989627 40.234375,17.734375 C39.6197886,16.8697873 38.7552139,16.4375 37.640625,16.4375 C36.5364528,16.4375 35.6822947,16.8671832 35.078125,17.7265625 C34.4739553,18.5859418 34.171875,19.9166577 34.171875,21.71875 Z M38.53125,6 L43.453125,6 L39.125,10.84375 L35.453125,10.84375 L38.53125,6 Z M57.609375,25.328125 C57.609375,24.7760389 57.3359402,24.3411474 56.7890625,24.0234375 C56.2421848,23.7057276 55.3645894,23.4218763 54.15625,23.171875 C50.1353966,22.3281208 48.125,20.6198045 48.125,18.046875 C48.125,16.5468675 48.7473896,15.2942759 49.9921875,14.2890625 C51.2369854,13.2838491 52.8645733,12.78125 54.875,12.78125 C57.0208441,12.78125 58.7369727,13.2864533 60.0234375,14.296875 C61.3099023,15.3072967 61.953125,16.6197836 61.953125,18.234375 L57.4375,18.234375 C57.4375,17.5885384 57.2291687,17.0546896 56.8125,16.6328125 C56.3958313,16.2109354 55.7447961,16 54.859375,16 C54.0989545,16 53.5104187,16.1718733 53.09375,16.515625 C52.6770813,16.8593767 52.46875,17.2968723 52.46875,17.828125 C52.46875,18.3281275 52.7057268,18.7317693 53.1796875,19.0390625 C53.6536482,19.3463557 54.4531194,19.611978 55.578125,19.8359375 C56.7031306,20.059897 57.6510378,20.3124986 58.421875,20.59375 C60.8073036,21.4687544 62,22.9843642 62,25.140625 C62,26.6822994 61.3385483,27.9296827 60.015625,28.8828125 C58.6927017,29.8359423 56.9843855,30.3125 54.890625,30.3125 C53.4739512,30.3125 52.2161513,30.0598984 51.1171875,29.5546875 C50.0182237,29.0494766 49.1562531,28.3567752 48.53125,27.4765625 C47.9062469,26.5963498 47.59375,25.6458384 47.59375,24.625 L51.875,24.625 C51.9166669,25.4270873 52.2135389,26.0416645 52.765625,26.46875 C53.3177111,26.8958355 54.057287,27.109375 54.984375,27.109375 C55.8489627,27.109375 56.502602,26.9453141 56.9453125,26.6171875 C57.388023,26.2890609 57.609375,25.8593777 57.609375,25.328125 Z M70.3125,8.9375 L70.3125,13.09375 L73.203125,13.09375 L73.203125,16.40625 L70.3125,16.40625 L70.3125,24.84375 C70.3125,25.4687531 70.4322905,25.9166653 70.671875,26.1875 C70.9114595,26.4583347 71.3697883,26.59375 72.046875,26.59375 C72.5468775,26.59375 72.9895814,26.557292 73.375,26.484375 L73.375,29.90625 C72.4895789,30.1770847 71.5781297,30.3125 70.640625,30.3125 C67.4739425,30.3125 65.8593753,28.7135577 65.796875,25.515625 L65.796875,16.40625 L63.328125,16.40625 L63.328125,13.09375 L65.796875,13.09375 L65.796875,8.9375 L70.3125,8.9375 Z M85.84375,28.28125 C84.7291611,29.6354234 83.1875098,30.3125 81.21875,30.3125 C79.4062409,30.3125 78.0234423,29.7916719 77.0703125,28.75 C76.1171827,27.7083281 75.6302084,26.1823017 75.609375,24.171875 L75.609375,13.09375 L80.125,13.09375 L80.125,24.015625 C80.125,25.7760505 80.9270753,26.65625 82.53125,26.65625 C84.0625077,26.65625 85.1145805,26.1250053 85.6875,25.0625 L85.6875,13.09375 L90.21875,13.09375 L90.21875,30 L85.96875,30 L85.84375,28.28125 Z M142.96875,17.328125 C142.354164,17.2447912 141.812502,17.203125 141.34375,17.203125 C139.635408,17.203125 138.515628,17.7812442 137.984375,18.9375 L137.984375,30 L133.46875,30 L133.46875,13.09375 L137.734375,13.09375 L137.859375,15.109375 C138.76563,13.5572839 140.020825,12.78125 141.625,12.78125 C142.125002,12.78125 142.593748,12.8489577 143.03125,12.984375 L142.96875,17.328125 Z M152.921875,30.3125 C150.442696,30.3125 148.424487,29.5520909 146.867188,28.03125 C145.309888,26.5104091 144.53125,24.4843877 144.53125,21.953125 L144.53125,21.515625 C144.53125,19.8176998 144.859372,18.2994859 145.515625,16.9609375 C146.171878,15.6223891 147.101556,14.5911495 148.304688,13.8671875 C149.507819,13.1432255 150.880201,12.78125 152.421875,12.78125 C154.734387,12.78125 156.554681,13.5104094 157.882812,14.96875 C159.210944,16.4270906 159.875,18.4947783 159.875,21.171875 L159.875,23.015625 L149.109375,23.015625 C149.255209,24.1197972 149.695309,25.005205 150.429688,25.671875 C151.164066,26.338545 152.093744,26.671875 153.21875,26.671875 C154.958342,26.671875 156.317703,26.041673 157.296875,24.78125 L159.515625,27.265625 C158.838538,28.2239631 157.921881,28.9713515 156.765625,29.5078125 C155.609369,30.0442735 154.328132,30.3125 152.921875,30.3125 Z M152.40625,16.4375 C151.510412,16.4375 150.783857,16.7395803 150.226562,17.34375 C149.669268,17.9479197 149.312501,18.8124944 149.15625,19.9375 L155.4375,19.9375 L155.4375,19.578125 C155.416667,18.57812 155.145836,17.8046902 154.625,17.2578125 C154.104164,16.7109348 153.364588,16.4375 152.40625,16.4375 Z M152.8125,6 L157.734375,6 L153.40625,10.84375 L149.734375,10.84375 L152.8125,6 Z M167.84375,8.9375 L167.84375,13.09375 L170.734375,13.09375 L170.734375,16.40625 L167.84375,16.40625 L167.84375,24.84375 C167.84375,25.4687531 167.96354,25.9166653 168.203125,26.1875 C168.44271,26.4583347 168.901038,26.59375 169.578125,26.59375 C170.078127,26.59375 170.520831,26.557292 170.90625,26.484375 L170.90625,29.90625 C170.020829,30.1770847 169.10938,30.3125 168.171875,30.3125 C165.005193,30.3125 163.390625,28.7135577 163.328125,25.515625 L163.328125,16.40625 L160.859375,16.40625 L160.859375,13.09375 L163.328125,13.09375 L163.328125,8.9375 L167.84375,8.9375 Z M178.65625,8.9375 L178.65625,13.09375 L181.546875,13.09375 L181.546875,16.40625 L178.65625,16.40625 L178.65625,24.84375 C178.65625,25.4687531 178.77604,25.9166653 179.015625,26.1875 C179.25521,26.4583347 179.713538,26.59375 180.390625,26.59375 C180.890627,26.59375 181.333331,26.557292 181.71875,26.484375 L181.71875,29.90625 C180.833329,30.1770847 179.92188,30.3125 178.984375,30.3125 C175.817692,30.3125 174.203125,28.7135577 174.140625,25.515625 L174.140625,16.40625 L171.671875,16.40625 L171.671875,13.09375 L174.140625,13.09375 L174.140625,8.9375 L178.65625,8.9375 Z" id="Kjóstu-rétt" fill="#313131"></path>
            <path d="M119.425941,19.340043 L121.932202,16.8418262 C122.300945,17.9951485 122.5,19.2243284 122.5,20.5 C122.5,27.127417 117.127417,32.5 110.5,32.5 C103.872583,32.5 98.5,27.127417 98.5,20.5 C98.5,13.872583 103.872583,8.5 110.5,8.5 C114.183758,8.5 117.479829,10.1598797 119.681084,12.7725078 L117.549369,14.9042229 C115.900606,12.8299421 113.355616,11.5 110.5,11.5 C105.529437,11.5 101.5,15.5294373 101.5,20.5 C101.5,25.4705627 105.529437,29.5 110.5,29.5 C115.470563,29.5 119.5,25.4705627 119.5,20.5 C119.5,20.106954 119.474805,19.7197927 119.425941,19.340043 Z" id="Combined-Shape" fill="#313131" fill-rule="nonzero"></path>
            <polygon id="Path" fill="#7EB3D5" points="122.453592 11.4142136 111.621227 22.2465785 107.166136 17.7914873 105.414214 19.5434096 111.599862 25.7290577 124.204377 13.1649983"></polygon>
        </g>
    </g>
</svg>