<?xml version="1.0" encoding="UTF-8"?>
<svg width="120px" height="112px" viewBox="0 0 120 112" version="1.1" xmlns="http://www.w3.org/2000/svg" xmlns:xlink="http://www.w3.org/1999/xlink">
    <!-- Generator: Sketch 3.8.3 (29802) - http://www.bohemiancoding.com/sketch -->
    <title>Group</title>
    <desc>Created with Sketch.</desc>
    <defs></defs>
    <g id="Page-1" stroke="none" stroke-width="1" fill="none" fill-rule="evenodd">
        <g id="Group" fill="#FFFFFF">
            <path d="M97.4218809,50.3537481 L109.089918,38.7491282 C110.806622,44.1064963 111.733333,49.8162351 111.733333,55.7419355 C111.733333,86.5273564 86.7209747,111.483871 55.8666667,111.483871 C25.0123586,111.483871 5.68434189e-14,86.5273564 5.68434189e-14,55.7419355 C5.68434189e-14,24.9565146 25.0123586,0 55.8666667,0 C73.0166067,0 88.3616483,7.71040893 98.6097133,19.8464878 L88.6853957,29.7486483 C81.0094879,20.1132794 69.1611456,13.9354839 55.8666667,13.9354839 C32.7259345,13.9354839 13.9666667,32.65287 13.9666667,55.7419355 C13.9666667,78.8310009 32.7259345,97.5483871 55.8666667,97.5483871 C79.0073989,97.5483871 97.7666667,78.8310009 97.7666667,55.7419355 C97.7666667,53.9161734 97.6493699,52.1177467 97.4218809,50.3537481 L97.4218809,50.3537481 Z" id="Combined-Shape"></path>
            <polygon id="Path" points="111.327771 13 60.8970939 63.3180821 40.1561702 42.6234649 32 50.7614266 60.7976279 79.4947597 119.478648 21.1326773"></polygon>
        </g>
    </g>
</svg>