<?xml version="1.0" encoding="utf-8"?>
<!-- Generator: Adobe Illustrator 16.0.0, SVG Export Plug-In . SVG Version: 6.00 Build 0)  -->
<!DOCTYPE svg PUBLIC "-//W3C//DTD SVG 1.1//EN" "http://www.w3.org/Graphics/SVG/1.1/DTD/svg11.dtd">
<svg version="1.1" id="Layer_1" xmlns="http://www.w3.org/2000/svg" xmlns:xlink="http://www.w3.org/1999/xlink" x="0px" y="0px"
	 width="17.356px" height="19.698px" viewBox="0 0 17.356 19.698" enable-background="new 0 0 17.356 19.698" xml:space="preserve">
<g>
	<path fill="#FFFFFF" d="M7.713,13.939l0.047-1.033c0.004-0.09,0.082-0.131,0.144-0.156l-0.002-0.002
		c0.421-0.064,0.823-0.176,1.208-0.324v0.002c0.066-0.008,0.153-0.012,0.201,0.066l0.557,0.871c0.023,0.039,0.072,0.053,0.112,0.033
		l1.076-0.621c0.038-0.025,0.05-0.076,0.028-0.115l-0.478-0.916c-0.042-0.082,0.006-0.156,0.046-0.209l-0.003-0.002
		c0.325-0.262,0.622-0.559,0.885-0.885l0.001,0.004c0.054-0.041,0.127-0.088,0.207-0.045l0.917,0.477
		c0.04,0.023,0.089,0.01,0.114-0.027l0.621-1.076c0.021-0.041,0.007-0.09-0.033-0.113L12.49,9.312
		c-0.076-0.049-0.072-0.137-0.064-0.203h-0.003c0.149-0.385,0.26-0.787,0.325-1.207l0,0c0.026-0.061,0.066-0.139,0.157-0.143
		l1.034-0.045c0.045,0,0.082-0.037,0.084-0.082V6.391c-0.002-0.045-0.039-0.08-0.084-0.08l-1.034-0.045
		c-0.091-0.006-0.13-0.084-0.157-0.145v0.002c-0.066-0.42-0.176-0.824-0.326-1.209h0.003c-0.008-0.066-0.011-0.152,0.065-0.201
		l0.871-0.557c0.04-0.021,0.054-0.07,0.033-0.111l-0.621-1.076c-0.025-0.039-0.074-0.051-0.114-0.027l-0.917,0.477
		c-0.08,0.041-0.154-0.006-0.207-0.047l-0.003,0.004c-0.263-0.326-0.558-0.621-0.884-0.885l0.002-0.002
		c-0.04-0.053-0.086-0.125-0.043-0.207l0.477-0.916c0.021-0.041,0.01-0.09-0.028-0.115L9.979,0.629
		c-0.04-0.02-0.09-0.006-0.112,0.033L9.311,1.533C9.262,1.611,9.174,1.607,9.107,1.598v0.004c-0.384-0.15-0.787-0.26-1.206-0.324
		V1.275C7.84,1.25,7.764,1.209,7.76,1.117L7.713,0.086c0-0.047-0.035-0.082-0.08-0.086H6.391C6.346,0.004,6.31,0.039,6.31,0.086
		L6.264,1.117C6.26,1.209,6.182,1.25,6.12,1.275l0.001,0.002C5.702,1.342,5.298,1.453,4.914,1.602V1.6
		C4.847,1.607,4.761,1.611,4.712,1.533L4.156,0.662C4.133,0.623,4.084,0.609,4.043,0.629L2.968,1.25
		C2.93,1.275,2.918,1.324,2.939,1.365l0.477,0.916C3.459,2.363,3.411,2.436,3.371,2.49l0.003,0.002
		C3.049,2.754,2.752,3.051,2.49,3.377L2.487,3.373C2.436,3.414,2.361,3.459,2.281,3.418L1.363,2.941
		C1.324,2.918,1.275,2.932,1.25,2.969L0.629,4.045c-0.02,0.041-0.007,0.09,0.032,0.113l0.872,0.555
		C1.609,4.762,1.605,4.85,1.599,4.916h0.002C1.451,5.301,1.34,5.703,1.275,6.123l0,0C1.249,6.184,1.209,6.26,1.117,6.266
		L0.084,6.311c-0.045,0-0.081,0.035-0.084,0.08v1.244c0.003,0.045,0.039,0.08,0.084,0.08L1.117,7.76
		c0.092,0.006,0.132,0.082,0.158,0.145l0,0C1.34,8.322,1.451,8.727,1.601,9.109H1.599c0.008,0.066,0.011,0.154-0.065,0.203
		L0.661,9.867C0.622,9.891,0.609,9.939,0.629,9.98l0.621,1.076c0.025,0.037,0.074,0.051,0.114,0.027l0.917-0.477
		c0.08-0.041,0.155,0.006,0.207,0.045L2.49,10.65c0.262,0.324,0.559,0.621,0.885,0.885l-0.003,0.002
		c0.04,0.053,0.087,0.125,0.044,0.207L2.94,12.66c-0.022,0.041-0.011,0.09,0.027,0.115l1.075,0.621
		c0.041,0.02,0.091,0.006,0.113-0.033l0.556-0.871c0.049-0.078,0.138-0.074,0.204-0.066v-0.002c0.383,0.15,0.787,0.26,1.206,0.324
		L6.121,12.75c0.062,0.025,0.139,0.066,0.143,0.156l0.046,1.033c0,0.045,0.036,0.082,0.081,0.086h1.242
		C7.678,14.021,7.713,13.984,7.713,13.939z M7.012,3.061c2.183,0,3.951,1.77,3.951,3.953c0,2.182-1.769,3.951-3.951,3.951
		s-3.951-1.77-3.951-3.951C3.061,4.83,4.829,3.061,7.012,3.061z"/>
	<path fill="#FFFFFF" d="M17.112,12.795c-0.013-0.043-0.056-0.072-0.101-0.062l-1.021,0.158c-0.09,0.014-0.145-0.055-0.182-0.109
		l-0.004,0.002c-0.061-0.092-0.125-0.18-0.199-0.266c-0.074-0.084-0.154-0.16-0.238-0.23l0.004-0.004
		c-0.05-0.043-0.109-0.105-0.085-0.193l0.287-0.992c0.015-0.045-0.007-0.09-0.05-0.107l-1.178-0.398
		c-0.043-0.01-0.088,0.014-0.104,0.055l-0.372,0.965c-0.034,0.086-0.12,0.098-0.188,0.104l0.001,0.004
		c-0.22,0.012-0.438,0.055-0.648,0.129v-0.004c-0.064,0.021-0.148,0.043-0.211-0.023l-0.717-0.744
		c-0.031-0.035-0.082-0.039-0.117-0.012l-0.933,0.822c-0.032,0.031-0.035,0.082-0.005,0.117l0.648,0.805
		c0.057,0.07,0.025,0.154-0.004,0.213h0.002c-0.1,0.201-0.17,0.412-0.209,0.629l-0.005-0.002c-0.013,0.066-0.038,0.148-0.127,0.17
		l-1.003,0.248c-0.045,0.01-0.073,0.053-0.068,0.098l0.245,1.217c0.012,0.045,0.056,0.072,0.101,0.062l1.021-0.158
		c0.091-0.014,0.146,0.055,0.183,0.109l0.004-0.002c0.06,0.092,0.125,0.18,0.199,0.266c0.074,0.084,0.154,0.158,0.238,0.23
		l-0.004,0.002c0.05,0.045,0.109,0.107,0.084,0.195l-0.287,0.992c-0.014,0.045,0.008,0.09,0.05,0.107l1.177,0.396
		c0.045,0.012,0.09-0.012,0.104-0.055l0.374-0.963c0.032-0.086,0.119-0.1,0.186-0.104l-0.001-0.004
		c0.22-0.014,0.438-0.057,0.649-0.129l0.001,0.002c0.063-0.021,0.146-0.041,0.211,0.025l0.716,0.744
		c0.03,0.035,0.081,0.037,0.117,0.01l0.933-0.82c0.032-0.033,0.035-0.084,0.005-0.117l-0.648-0.805
		c-0.057-0.07-0.024-0.152,0.004-0.213h-0.002c0.1-0.201,0.169-0.412,0.21-0.629l0.003,0.002c0.014-0.064,0.038-0.148,0.127-0.17
		l1.004-0.248c0.044-0.01,0.072-0.051,0.066-0.096L17.112,12.795z M13.152,14.678c-0.325-0.369-0.289-0.934,0.081-1.26
		c0.368-0.324,0.933-0.289,1.258,0.08c0.325,0.371,0.29,0.934-0.08,1.26C14.041,15.082,13.479,15.047,13.152,14.678z"/>
	<path fill="#FFFFFF" d="M12.148,17.68l-0.624-0.238c-0.056-0.021-0.063-0.078-0.066-0.121h-0.003
		c-0.005-0.07-0.013-0.141-0.027-0.211c-0.014-0.072-0.035-0.141-0.059-0.207h0.004c-0.015-0.041-0.027-0.096,0.014-0.137
		l0.48-0.465c0.021-0.02,0.023-0.053,0.006-0.074l-0.531-0.6c-0.021-0.021-0.055-0.023-0.076-0.004l-0.518,0.42
		c-0.047,0.037-0.1,0.016-0.139-0.002l-0.001,0.002c-0.127-0.062-0.263-0.109-0.405-0.135l0.002-0.002
		c-0.044-0.01-0.098-0.025-0.112-0.082l-0.161-0.646c-0.006-0.029-0.034-0.047-0.062-0.043l-0.787,0.16
		c-0.027,0.008-0.045,0.035-0.039,0.064l0.104,0.658c0.01,0.059-0.035,0.094-0.069,0.117l0.001,0.002
		c-0.12,0.08-0.227,0.176-0.319,0.285L8.757,16.42c-0.028,0.031-0.069,0.07-0.125,0.055l-0.644-0.184
		c-0.026-0.01-0.057,0.006-0.067,0.031l-0.255,0.762c-0.007,0.027,0.008,0.059,0.036,0.066l0.623,0.24
		c0.056,0.021,0.063,0.076,0.067,0.119h0.003c0.004,0.07,0.013,0.141,0.026,0.213c0.015,0.07,0.035,0.139,0.06,0.205L8.479,17.93
		c0.014,0.039,0.026,0.094-0.016,0.135l-0.479,0.465c-0.022,0.02-0.025,0.053-0.007,0.076l0.532,0.6
		c0.02,0.021,0.053,0.023,0.074,0.004l0.52-0.422c0.045-0.037,0.099-0.016,0.138,0.002l0.001-0.002
		c0.127,0.062,0.264,0.109,0.404,0.137v0.002c0.043,0.008,0.096,0.023,0.111,0.08l0.16,0.648c0.008,0.029,0.035,0.047,0.063,0.043
		l0.786-0.16c0.028-0.008,0.045-0.035,0.041-0.064l-0.105-0.658c-0.009-0.059,0.035-0.096,0.07-0.119l-0.002-0.002
		c0.121-0.08,0.228-0.176,0.32-0.283l0.002,0.002c0.028-0.033,0.068-0.072,0.125-0.055l0.643,0.182
		c0.027,0.01,0.057-0.004,0.068-0.031l0.254-0.762C12.191,17.719,12.177,17.689,12.148,17.68z M9.002,17.604
		c-0.105-0.51,0.225-1.008,0.735-1.111c0.509-0.105,1.007,0.225,1.111,0.734s-0.225,1.008-0.735,1.111
		C9.604,18.443,9.105,18.113,9.002,17.604z"/>
</g>
</svg>
