<?xml version="1.0" encoding="utf-8"?>
<!-- Generator: Adobe Illustrator 16.0.0, SVG Export Plug-In . SVG Version: 6.00 Build 0)  -->
<!DOCTYPE svg PUBLIC "-//W3C//DTD SVG 1.1//EN" "http://www.w3.org/Graphics/SVG/1.1/DTD/svg11.dtd">
<svg version="1.1" id="Layer_1" xmlns="http://www.w3.org/2000/svg" xmlns:xlink="http://www.w3.org/1999/xlink" x="0px" y="0px"
	 width="11.234px" height="19.391px" viewBox="0 0 11.234 19.391" enable-background="new 0 0 11.234 19.391" xml:space="preserve">
<g>
	<path fill="#FFFFFF" d="M8.161,10.775l-1.523,2.178v-1.055H5.896v2.113L5.087,15.17v4.221h2.547v-2.646h1.141v2.646h2.46V15.17
		L8.161,10.775z M6.921,17.842H5.823v-1.098h1.098V17.842z M8.161,14.336c-0.339,0-0.614-0.273-0.614-0.613
		c0-0.338,0.275-0.613,0.614-0.613c0.338,0,0.613,0.275,0.613,0.613C8.774,14.062,8.499,14.336,8.161,14.336z M10.584,17.842H9.487
		v-1.098h1.097V17.842z"/>
	<path fill="#FFFFFF" d="M0.323,0C0.146,0,0,0.145,0,0.322v18.746c0,0.178,0.146,0.322,0.323,0.322h4.212
		c0.178,0,0.323-0.145,0.323-0.322v-3.576c0-0.178,0-0.34,0-0.359s0.009-0.049,0.021-0.064s0.104-0.148,0.206-0.295l0.397-0.568
		c0.103-0.145,0.186-0.41,0.186-0.588v-1.396c0-0.178,0-0.375,0-0.438s0.051-0.113,0.113-0.113c0.063,0,0.26,0,0.438,0h0.096
		c0.178,0,0.375,0,0.438,0s0.114,0.051,0.114,0.113s0,0.189,0,0.281c0,0.09,0.083,0.045,0.186-0.1l0.736-1.055
		c0.103-0.146,0.228-0.324,0.279-0.398s0.136-0.074,0.187,0s0.176,0.252,0.278,0.398l0.523,0.748
		c0.103,0.146,0.186,0.119,0.186-0.059V0.322C9.241,0.145,9.096,0,8.918,0H0.323z M2.475,16.166c0,0.178-0.146,0.324-0.323,0.324
		H0.859c-0.178,0-0.323-0.146-0.323-0.324v-1.291c0-0.178,0.146-0.322,0.323-0.322h1.292c0.178,0,0.323,0.145,0.323,0.322V16.166z
		 M2.475,13.402c0,0.178-0.146,0.322-0.323,0.322H0.859c-0.178,0-0.323-0.145-0.323-0.322v-1.293c0-0.178,0.146-0.324,0.323-0.324
		h1.292c0.178,0,0.323,0.146,0.323,0.324V13.402z M2.475,10.635c0,0.178-0.146,0.324-0.323,0.324H0.859
		c-0.178,0-0.323-0.146-0.323-0.324V9.344c0-0.178,0.146-0.324,0.323-0.324h1.292c0.178,0,0.323,0.146,0.323,0.324V10.635z
		 M2.475,7.869c0,0.178-0.146,0.324-0.323,0.324H0.859c-0.178,0-0.323-0.146-0.323-0.324V6.578c0-0.178,0.146-0.324,0.323-0.324
		h1.292c0.178,0,0.323,0.146,0.323,0.324V7.869z M2.475,5.104c0,0.178-0.146,0.324-0.323,0.324H0.859
		c-0.178,0-0.323-0.146-0.323-0.324V3.811c0-0.178,0.146-0.322,0.323-0.322h1.292c0.178,0,0.323,0.145,0.323,0.322V5.104z
		 M2.475,2.338c0,0.178-0.146,0.322-0.323,0.322H0.859c-0.178,0-0.323-0.145-0.323-0.322V1.045c0-0.178,0.146-0.322,0.323-0.322
		h1.292c0.178,0,0.323,0.145,0.323,0.322V2.338z M4.683,16.166c0,0.178-0.146,0.324-0.323,0.324H3.973
		c-0.178,0-0.323-0.146-0.323-0.324v-1.291c0-0.178,0.146-0.322,0.323-0.322h0.387c0.178,0,0.323,0.145,0.323,0.322V16.166z
		 M5.409,13.402c0,0.178-0.146,0.322-0.323,0.322H3.973c-0.178,0-0.323-0.145-0.323-0.322v-1.293c0-0.178,0.146-0.324,0.323-0.324
		h1.113c0.178,0,0.323,0.146,0.323,0.324V13.402z M5.588,10.635c0,0.178-0.146,0.324-0.323,0.324H3.973
		c-0.178,0-0.323-0.146-0.323-0.324V9.344c0-0.178,0.146-0.324,0.323-0.324h1.292c0.178,0,0.323,0.146,0.323,0.324V10.635z
		 M5.588,7.869c0,0.178-0.146,0.324-0.323,0.324H3.973c-0.178,0-0.323-0.146-0.323-0.324V6.578c0-0.178,0.146-0.324,0.323-0.324
		h1.292c0.178,0,0.323,0.146,0.323,0.324V7.869z M5.588,5.104c0,0.178-0.146,0.324-0.323,0.324H3.973
		c-0.178,0-0.323-0.146-0.323-0.324V3.811c0-0.178,0.146-0.322,0.323-0.322h1.292c0.178,0,0.323,0.145,0.323,0.322V5.104z
		 M5.588,2.338c0,0.178-0.146,0.322-0.323,0.322H3.973c-0.178,0-0.323-0.145-0.323-0.322V1.045c0-0.178,0.146-0.322,0.323-0.322
		h1.292c0.178,0,0.323,0.145,0.323,0.322V2.338z M8.7,10.441c0,0.178-0.091,0.209-0.201,0.07l-0.137-0.174
		c-0.11-0.139-0.288-0.137-0.394,0.006l-0.262,0.355c-0.105,0.143-0.338,0.26-0.516,0.26H7.085c-0.178,0-0.323-0.146-0.323-0.324
		V9.344c0-0.178,0.146-0.324,0.323-0.324h1.292C8.555,9.02,8.7,9.166,8.7,9.344V10.441z M8.7,7.869c0,0.178-0.146,0.324-0.323,0.324
		H7.085c-0.178,0-0.323-0.146-0.323-0.324V6.578c0-0.178,0.146-0.324,0.323-0.324h1.292C8.555,6.254,8.7,6.4,8.7,6.578V7.869z
		 M8.7,5.104c0,0.178-0.146,0.324-0.323,0.324H7.085c-0.178,0-0.323-0.146-0.323-0.324V3.811c0-0.178,0.146-0.322,0.323-0.322h1.292
		c0.178,0,0.323,0.145,0.323,0.322V5.104z M8.7,2.338c0,0.178-0.146,0.322-0.323,0.322H7.085c-0.178,0-0.323-0.145-0.323-0.322
		V1.045c0-0.178,0.146-0.322,0.323-0.322h1.292c0.178,0,0.323,0.145,0.323,0.322V2.338z"/>
</g>
</svg>
