<?xml version="1.0" encoding="utf-8"?>
<!-- Generator: Adobe Illustrator 16.0.0, SVG Export Plug-In . SVG Version: 6.00 Build 0)  -->
<!DOCTYPE svg PUBLIC "-//W3C//DTD SVG 1.1//EN" "http://www.w3.org/Graphics/SVG/1.1/DTD/svg11.dtd">
<svg version="1.1" id="Layer_1" xmlns="http://www.w3.org/2000/svg" xmlns:xlink="http://www.w3.org/1999/xlink" x="0px" y="0px"
	 width="21.428px" height="21.236px" viewBox="0 0 21.428 21.236" enable-background="new 0 0 21.428 21.236" xml:space="preserve">
<g>
	<g>
		<polygon fill="#FFFFFF" points="6.228,1.879 6.685,3.287 8.166,3.287 6.968,4.158 7.426,5.566 6.228,4.697 5.029,5.566 
			5.487,4.158 4.289,3.287 5.77,3.287 		"/>
	</g>
	<g>
		<polygon fill="#FFFFFF" points="3.077,5.482 3.535,6.893 5.016,6.893 3.817,7.762 4.275,9.17 3.077,8.301 1.879,9.17 2.337,7.762 
			1.139,6.893 2.619,6.893 		"/>
	</g>
	<g>
		<polygon fill="#FFFFFF" points="1.938,10.26 2.396,11.668 3.877,11.668 2.679,12.539 3.137,13.947 1.938,13.076 0.74,13.947 
			1.198,12.539 0,11.668 1.48,11.668 		"/>
	</g>
	<g>
		<polygon fill="#FFFFFF" points="3.917,15.035 4.375,16.443 5.855,16.443 4.657,17.314 5.115,18.723 3.917,17.852 2.719,18.723 
			3.177,17.314 1.979,16.443 3.459,16.443 		"/>
	</g>
	<g>
		<polygon fill="#FFFFFF" points="8.256,17.449 8.713,18.859 10.194,18.859 8.996,19.729 9.454,21.137 8.256,20.268 7.058,21.137 
			7.515,19.729 6.317,18.859 7.798,18.859 		"/>
	</g>
	<g>
		<polygon fill="#FFFFFF" points="13.032,17.549 13.49,18.957 14.971,18.957 13.772,19.828 14.23,21.236 13.032,20.367 
			11.834,21.236 12.292,19.828 11.093,18.957 12.574,18.957 		"/>
	</g>
	<g>
		<polygon fill="#FFFFFF" points="17.511,15.275 17.969,16.684 19.45,16.684 18.252,17.553 18.709,18.961 17.511,18.092 
			16.313,18.961 16.771,17.553 15.573,16.684 17.054,16.684 		"/>
	</g>
	<g>
		<polygon fill="#FFFFFF" points="19.489,10.5 19.947,11.908 21.428,11.908 20.23,12.777 20.688,14.188 19.489,13.316 
			18.292,14.188 18.749,12.777 17.551,11.908 19.032,11.908 		"/>
	</g>
	<g>
		<polygon fill="#FFFFFF" points="18.55,5.723 19.007,7.131 20.488,7.131 19.29,8.002 19.748,9.41 18.55,8.541 17.352,9.41 
			17.81,8.002 16.611,7.131 18.092,7.131 		"/>
	</g>
	<g>
		<polygon fill="#FFFFFF" points="15.54,1.979 15.998,3.387 17.479,3.387 16.28,4.258 16.738,5.666 15.54,4.795 14.342,5.666 
			14.799,4.258 13.601,3.387 15.082,3.387 		"/>
	</g>
	<g>
		<polygon fill="#FFFFFF" points="10.764,0 11.221,1.408 12.702,1.408 11.504,2.279 11.962,3.688 10.764,2.818 9.565,3.688 
			10.023,2.279 8.825,1.408 10.306,1.408 		"/>
	</g>
</g>
</svg>
