<?xml version="1.0" encoding="utf-8"?>
<!-- Generator: Adobe Illustrator 16.0.0, SVG Export Plug-In . SVG Version: 6.00 Build 0)  -->
<!DOCTYPE svg PUBLIC "-//W3C//DTD SVG 1.1//EN" "http://www.w3.org/Graphics/SVG/1.1/DTD/svg11.dtd">
<svg version="1.1" id="Layer_1" xmlns="http://www.w3.org/2000/svg" xmlns:xlink="http://www.w3.org/1999/xlink" x="0px" y="0px"
	 width="23.75px" height="21.068px" viewBox="0 0 23.75 21.068" enable-background="new 0 0 23.75 21.068" xml:space="preserve">
<path fill="none" stroke="#FFFFFF" stroke-width="1.4505" stroke-miterlimit="10" d="M13.955,20.343h3.246h2.724
	c0.229-0.001,0.415-0.187,0.416-0.416v-7.634h2.268c0.23-0.001,0.417-0.188,0.416-0.419c-0.001-0.109-0.044-0.215-0.121-0.292
	L12.17,0.848c-0.09-0.09-0.216-0.135-0.342-0.12c-0.095,0.011-0.182,0.054-0.249,0.12L0.846,11.582
	c-0.162,0.163-0.16,0.428,0.003,0.59c0.078,0.077,0.183,0.12,0.293,0.121h2.267v7.634c0.001,0.229,0.187,0.415,0.416,0.416h2.824
	H9.7v-6.76h4.255V20.343z"/>
</svg>
