<?xml version="1.0" encoding="utf-8"?>
<!-- Generator: Adobe Illustrator 16.0.0, SVG Export Plug-In . SVG Version: 6.00 Build 0)  -->
<!DOCTYPE svg PUBLIC "-//W3C//DTD SVG 1.1//EN" "http://www.w3.org/Graphics/SVG/1.1/DTD/svg11.dtd">
<svg version="1.1" id="Layer_1" xmlns="http://www.w3.org/2000/svg" xmlns:xlink="http://www.w3.org/1999/xlink" x="0px" y="0px"
	 width="11.289px" height="20.035px" viewBox="0 0 11.289 20.035" enable-background="new 0 0 11.289 20.035" xml:space="preserve">
<g>
	<polygon fill="#FFFFFF" points="1.502,16.863 0.168,16.232 0,20.035 2.835,17.492 	"/>
	<path fill="#FFFFFF" d="M1.051,11.787c-0.291,0.615-0.502,1.209-0.479,2.289c0.089-0.691,0.255-0.979,0.668-0.783
		c0.43,0.203,0.586,0.637,0.505,1.035c0.308-0.291,0.665-0.432,1.069-0.24c0.406,0.191,0.522,0.557,0.492,0.979
		c0.257-0.314,0.691-0.469,1.121-0.266c0.414,0.197,0.296,0.508-0.182,1.016c0.85-0.668,1.175-1.209,1.467-1.824
		c0.08-0.17,0.13-0.273,0.13-0.273l-0.972-0.461l0.111-0.236l0.973,0.459l0.118-0.248l-0.972-0.459l0.111-0.238l0.972,0.461
		l0.126-0.268l-1.72-0.814l0.127-0.27l1.722,0.814l0.093-0.197l-0.972-0.461l0.111-0.236l0.973,0.459l0.117-0.248l-0.971-0.459
		l0.111-0.238l0.973,0.461l0.116-0.25L6.021,10.83l0.112-0.236l0.971,0.459l0.117-0.248L6.25,10.344l0.112-0.236l0.971,0.459
		l0.118-0.248L5.73,9.504l0.113-0.236l1.719,0.814l0.119-0.25L6.71,9.373l0.111-0.236l0.972,0.459l0.118-0.25L6.939,8.887
		L7.052,8.65l0.972,0.461l0.117-0.25L7.169,8.4l0.112-0.236l0.971,0.461l0.119-0.25L7.398,7.916L7.511,7.68l0.972,0.459l0.118-0.248
		L6.88,7.076L6.992,6.84l1.721,0.814l0.117-0.25L7.859,6.943l0.111-0.236l0.971,0.461l0.118-0.25L8.089,6.459l0.112-0.236
		l0.971,0.459L9.29,6.434L8.318,5.973L8.43,5.736l0.972,0.461l0.118-0.25L8.549,5.488l0.11-0.236l0.973,0.459l0.118-0.25
		L8.029,4.648L8.142,4.41l1.72,0.814l0.118-0.248L9.008,4.516l0.111-0.236l0.972,0.459l0.118-0.248L9.236,4.031L9.35,3.795
		l0.972,0.459l0.117-0.25L9.468,3.545l0.111-0.236l0.971,0.459l0.118-0.248L9.697,3.059l0.111-0.236l0.972,0.459l0.117-0.248
		L9.181,2.215l0.111-0.236l1.718,0.818l0.279-0.59L6.628,0L1.051,11.787z"/>
</g>
</svg>
