<?xml version="1.0" encoding="utf-8"?>
<!-- Generator: Adobe Illustrator 16.0.0, SVG Export Plug-In . SVG Version: 6.00 Build 0)  -->
<!DOCTYPE svg PUBLIC "-//W3C//DTD SVG 1.1//EN" "http://www.w3.org/Graphics/SVG/1.1/DTD/svg11.dtd">
<svg version="1.1" id="Layer_1" xmlns="http://www.w3.org/2000/svg" xmlns:xlink="http://www.w3.org/1999/xlink" x="0px" y="0px"
	 width="25.227px" height="15.256px" viewBox="0 0 25.227 15.256" enable-background="new 0 0 25.227 15.256" xml:space="preserve">
<g>
	<g>
		<path fill="#FFFFFF" d="M11.242,9.08"/>
		<path fill="#FFFFFF" d="M14.715,10.453"/>
		<g>
			<path fill="#FFFFFF" d="M24.621,2.256c-0.167-0.846-0.705-1.182-1.515-1.516C22.314,0.408,20.41,0.012,19.002,0
				c-1.409,0.012-3.312,0.408-4.11,0.74c-0.804,0.334-1.343,0.672-1.507,1.516L12.779,6.91v6.42h1.043v1
				c-0.004,1.232,1.792,1.232,1.793,0v-1h3.316h0.009h3.451v1c-0.003,1.232,1.793,1.232,1.792,0v-1h1.043V6.91L24.621,2.256z
				 M16.44,1.178h2.5h2.625c0.502-0.002,0.502,0.754,0,0.758h-2.634H16.44C15.937,1.932,15.937,1.176,16.44,1.178z M14.715,11.32
				c-0.473-0.004-0.859-0.389-0.859-0.867c0-0.473,0.387-0.859,0.859-0.859c0.479,0,0.865,0.387,0.866,0.859
				C15.58,10.932,15.193,11.316,14.715,11.32z M18.94,7.396h-4.569c-0.447,0.006-0.541-0.316-0.498-0.639l0.472-3.383
				c0.065-0.408,0.204-0.678,0.741-0.684h3.846h3.989c0.534,0.006,0.673,0.275,0.74,0.684l0.472,3.383
				c0.041,0.322-0.053,0.645-0.496,0.639H18.94z M23.282,11.32c-0.473-0.004-0.858-0.389-0.858-0.867
				c0-0.473,0.386-0.859,0.858-0.859c0.479,0,0.866,0.387,0.868,0.859C24.148,10.932,23.762,11.316,23.282,11.32z"/>
			<path fill="#FFFFFF" d="M18.94,0c0.02,0,0.042,0,0.062,0c0.022,0,0.044,0,0.064,0H18.94z"/>
		</g>
		<path fill="#FFFFFF" d="M10.523,8.896L9.575,6.445C9.398,5.977,9.01,5.578,8.277,5.574H6.938H4.651h-1.36
			c-0.73,0.004-1.119,0.402-1.299,0.871L1.043,8.896C0.666,8.943-0.001,9.387,0,10.225v3.119h0.926v0.996
			c-0.002,1.229,1.736,1.213,1.734,0v-0.996h3.127h3.119v0.996c0.004,1.213,1.74,1.229,1.742,0v-0.996h0.926v-3.119
			C11.571,9.387,10.904,8.943,10.523,8.896z M1.82,11.463c-0.443,0-0.803-0.369-0.801-0.824C1.018,10.18,1.377,9.809,1.82,9.812
			c0.442-0.004,0.802,0.367,0.801,0.826C2.622,11.094,2.263,11.463,1.82,11.463z M5.787,8.873H5.779H2.031l0.714-1.93
			C2.832,6.67,2.967,6.473,3.283,6.469h2.496h0.008h2.505C8.604,6.473,8.738,6.67,8.828,6.943l0.716,1.93H5.787z M9.754,11.463
			c-0.446,0-0.807-0.369-0.809-0.824c0.002-0.459,0.362-0.83,0.809-0.826c0.439-0.004,0.799,0.367,0.802,0.826
			C10.553,11.094,10.193,11.463,9.754,11.463z"/>
	</g>
	<path fill="#FFFFFF" d="M9.944,13.434"/>
</g>
</svg>
