<?xml version="1.0" encoding="utf-8"?>
<!-- Generator: Adobe Illustrator 16.0.0, SVG Export Plug-In . SVG Version: 6.00 Build 0)  -->
<!DOCTYPE svg PUBLIC "-//W3C//DTD SVG 1.1//EN" "http://www.w3.org/Graphics/SVG/1.1/DTD/svg11.dtd">
<svg version="1.1" id="Layer_1" xmlns="http://www.w3.org/2000/svg" xmlns:xlink="http://www.w3.org/1999/xlink" x="0px" y="0px"
	 width="21.901px" height="13.744px" viewBox="0 0 21.901 13.744" enable-background="new 0 0 21.901 13.744" xml:space="preserve">
<g>
	<path fill="#FFFFFF" d="M17.513,6.637c0.244,0,0.472-0.014,0.693-0.035c-0.005-0.002-0.003-0.004-0.011-0.006
		c-1.174-0.18-2.282-1.961-2.755-2.18c-0.405-0.188-1.313,0.521-2.021,1.166c0.008,0.035,0.042,0.457,0.042,0.457
		C14.808,6.348,16.312,6.637,17.513,6.637z"/>
	<path fill="#FFFFFF" d="M13.22,5.984c-0.008-0.1-0.02-0.217-0.045-0.369c-0.119-0.709-0.947-2.434-1.573-2.451
		c-0.002,0-0.005,0-0.007,0c-0.477,0-1.792,1.268-2.419,1.902c0.903,0.154,1.878,0.389,2.905,0.641
		C12.459,5.801,12.84,5.895,13.22,5.984z"/>
	<path fill="#FFFFFF" d="M8.306,12.285c-0.115-0.072-0.312-0.291-0.647-0.543c-0.339-0.129-0.679-0.266-1.016-0.408
		c0.077,0.264,0.292,0.99,0.428,1.375c0.169,0.475,1.167,1.502,0.964,0.793C7.831,12.791,8.44,12.369,8.306,12.285z"/>
	<path fill="#FFFFFF" d="M17.943,11.439c-1.099,0.424-2.312,0.701-3.426,0.883c0.951,0.6,1.21,0.939,2.021,0.455
		c0.88-0.523,1.472-1.098,1.742-1.133C18.532,11.613,18.221,11.51,17.943,11.439z"/>
	<path fill="#FFFFFF" d="M21.478,4.385c-0.519-1.76-1.335-3.479-2.943-4.316c-0.422-0.219-0.473,0.137-0.439,0.357
		c0.034,0.219,0.238,1.486,0.111,2.18c-0.128,0.693-0.533,1.789-0.635,1.969c-0.103,0.18-0.051,0.434,0.305,0.383
		c0.284-0.041,1.771,0.195,2.355,0.359l0.42,0.1c0.142,0.035,0.283,0.113,0.299,0.148c0,0-0.004,0.021-0.045,0.064
		c-0.758,0.814-1.867,1.211-3.393,1.211c-1.688,0-3.615-0.475-5.479-0.934c-1.21-0.299-2.354-0.58-3.38-0.721
		c-0.967-0.133-1.943-0.199-2.9-0.199c-2.184,0-3.776,0.346-4.531,0.551c-0.748,0.203-0.8,0.371-0.816,0.424
		c-0.037,0.119-0.102,0.33,1.41,1.623C1.678,7.586,1.526,7.59,1.372,7.594C1.09,7.602,0.803,7.609,0.585,7.609
		c-0.219,0-0.275-0.01-0.289-0.012C0.273,7.594,0.255,7.592,0.237,7.592L0.076,7.605L0.023,7.729
		c-0.047,0.107-0.099,0.23,0.644,1.02l0.047,0.051l0.071,0.012c0.017,0.002,1.716,0.26,3.794,1.299
		c2.245,1.121,5.156,2.254,6.604,2.254l0.096-0.002c1.313-0.045,5.795-0.33,8.267-2.014C22.515,8.326,22.052,5.041,21.478,4.385z
		 M4.566,6.518c-0.293,0-0.532-0.238-0.532-0.533s0.239-0.533,0.532-0.533c0.295,0,0.532,0.238,0.532,0.533S4.861,6.518,4.566,6.518
		z"/>
	<path fill="#FFFFFF" d="M4.428,5.562c-0.233,0-0.423,0.188-0.423,0.422c0,0.232,0.189,0.422,0.423,0.422s0.423-0.189,0.423-0.422
		C4.851,5.75,4.661,5.562,4.428,5.562z M4.354,6.191c-0.114,0-0.206-0.094-0.206-0.207S4.24,5.779,4.354,5.779
		c0.113,0,0.205,0.092,0.205,0.205S4.468,6.191,4.354,6.191z"/>
</g>
</svg>
