<?xml version="1.0" encoding="utf-8"?>
<!-- Generator: Adobe Illustrator 16.0.0, SVG Export Plug-In . SVG Version: 6.00 Build 0)  -->
<!DOCTYPE svg PUBLIC "-//W3C//DTD SVG 1.1//EN" "http://www.w3.org/Graphics/SVG/1.1/DTD/svg11.dtd">
<svg version="1.1" id="Layer_1" xmlns="http://www.w3.org/2000/svg" xmlns:xlink="http://www.w3.org/1999/xlink" x="0px" y="0px"
	 width="19.449px" height="19.449px" viewBox="0 0 19.449 19.449" enable-background="new 0 0 19.449 19.449" xml:space="preserve">
<g>
	<path fill="#FFFFFF" d="M9.726,0L9.726,0C4.354,0,0,4.355,0,9.727c0,5.369,4.354,9.723,9.726,9.723
		c2.136,0,4.109-0.689,5.715-1.857L9.726,9.727V0z"/>
	<path fill="#FFFFFF" d="M9.978,0.256c5.106,0.135,9.219,4.332,9.219,9.471c0,2.932-1.379,5.721-3.703,7.51L9.978,9.645V0.256
		 M9.726,0v9.727l5.715,7.865c2.429-1.77,4.009-4.631,4.009-7.865C19.449,4.355,15.096,0,9.726,0L9.726,0z"/>
</g>
</svg>
