<?xml version="1.0" encoding="utf-8"?>
<!-- Generator: Adobe Illustrator 16.0.0, SVG Export Plug-In . SVG Version: 6.00 Build 0)  -->
<!DOCTYPE svg PUBLIC "-//W3C//DTD SVG 1.1//EN" "http://www.w3.org/Graphics/SVG/1.1/DTD/svg11.dtd">
<svg version="1.1" id="Layer_1" xmlns="http://www.w3.org/2000/svg" xmlns:xlink="http://www.w3.org/1999/xlink" x="0px" y="0px"
	 width="17.026px" height="21.24px" viewBox="0 0 17.026 21.24" enable-background="new 0 0 17.026 21.24" xml:space="preserve">
<g>
	<path fill="#FFFFFF" d="M8.841,8.137v3.094c0.396,0.283,0.701,0.561,0.92,0.834V9.365c0-0.441-0.043-0.744-0.127-0.904
		C9.501,8.244,9.238,8.137,8.841,8.137z"/>
	<path fill="#FFFFFF" d="M8.08,4.887L7.853,4.66v2.035c0,0.377,0.037,0.654,0.113,0.834C8.097,7.783,8.32,7.938,8.63,7.994V5.381
		L8.376,5.197L8.08,4.887z"/>
	<path fill="#FFFFFF" d="M0,0c0,0,0,12.213,0,15.764c0,3.553,8.512,2.592,8.512,5.477c0-2.885,8.514-1.924,8.514-5.477
		c0-3.551,0-15.764,0-15.764C11.105,0,5.92,0,0,0z M12.586,11.611l0.41,0.016v0.268l-0.467-0.014
		c-1.007-0.029-1.997,0.227-2.968,0.762c-0.555,0.312-0.965,0.881-1.229,1.711c-0.207-0.406-0.414-0.701-0.621-0.891
		c-0.189-0.188-0.48-0.381-0.877-0.578c-0.386-0.209-0.819-0.312-1.298-0.312c-0.293,0-0.545,0.092-0.757,0.277
		c-0.212,0.182-0.317,0.416-0.317,0.697c0,0.576,0.301,0.98,0.903,1.217c0.575,0.217,1.375,0.324,2.403,0.324
		c1.658,0,2.486-0.588,2.486-1.766h0.269c0,0.885-0.321,1.592-0.962,2.119c-0.602,0.471-1.365,0.705-2.289,0.705
		c-0.818,0-1.529-0.244-2.132-0.734C4.5,14.885,4.18,14.227,4.18,13.436c0-0.811,0.26-1.461,0.777-1.951
		c0.527-0.498,1.196-0.748,2.005-0.748c0.518,0,1.074,0.127,1.668,0.381V8.164C8.083,8.297,7.663,8.51,7.366,8.807
		s-0.53,0.719-0.7,1.266C6.553,9.686,6.375,9.318,6.128,8.971C5.82,8.547,5.494,8.334,5.155,8.334c-0.17,0-0.4,0.123-0.692,0.367
		L4.321,8.49c0.234-0.152,0.426-0.275,0.572-0.375c0.146-0.1,0.242-0.182,0.29-0.248C5.362,7.66,5.451,7.336,5.451,6.893V5.254
		L5.141,5.268c-0.122,0.01-0.349-0.014-0.678-0.07V4.943l0.621,0.041C5.978,5.051,6.755,4.887,7.415,4.49
		c0.235-0.15,0.446-0.293,0.629-0.43c0.185-0.137,0.342-0.271,0.474-0.404c0.273-0.271,0.532-0.645,0.777-1.115
		c0.404,1.074,0.928,1.611,1.568,1.611c0.264,0,0.461-0.113,0.594-0.34c0.066-0.123,0.136-0.357,0.211-0.707h0.24
		c0,0.717-0.202,1.32-0.606,1.809c-0.425,0.52-0.989,0.777-1.696,0.777c-0.244,0-0.499-0.074-0.764-0.227v2.529
		c0.52-0.037,1-0.342,1.442-0.918c0.302-0.367,0.513-0.754,0.636-1.158c0.16,0.404,0.414,0.811,0.763,1.215
		c0.312,0.367,0.542,0.551,0.692,0.551c0.188,0,0.396-0.098,0.622-0.297l0.141,0.24c-0.16,0.104-0.287,0.188-0.382,0.248
		c-0.094,0.061-0.16,0.102-0.197,0.119c-0.197,0.162-0.32,0.35-0.367,0.566c-0.01,0.057-0.017,0.129-0.021,0.219
		c-0.004,0.09-0.007,0.195-0.007,0.318v2.529L12.586,11.611z"/>
</g>
</svg>
