<?xml version="1.0" encoding="utf-8"?>
<!-- Generator: Adobe Illustrator 16.0.0, SVG Export Plug-In . SVG Version: 6.00 Build 0)  -->
<!DOCTYPE svg PUBLIC "-//W3C//DTD SVG 1.1//EN" "http://www.w3.org/Graphics/SVG/1.1/DTD/svg11.dtd">
<svg version="1.1" id="Layer_1" xmlns="http://www.w3.org/2000/svg" xmlns:xlink="http://www.w3.org/1999/xlink" x="0px" y="0px"
	 width="20.686px" height="19.049px" viewBox="0 0 20.686 19.049" enable-background="new 0 0 20.686 19.049" xml:space="preserve">
<g>
	<path fill="#FFFFFF" d="M12.775,6.387c0-0.631-0.337-1.182-0.84-1.486c0.283-0.516,0.3-1.16-0.016-1.707s-0.883-0.855-1.471-0.867
		c-0.013-0.588-0.321-1.156-0.868-1.471C9.035,0.539,8.39,0.557,7.875,0.84C7.569,0.336,7.02,0,6.388,0
		c-0.63,0-1.181,0.336-1.485,0.84C4.386,0.557,3.741,0.541,3.194,0.855C2.648,1.17,2.34,1.738,2.327,2.326
		c-0.588,0.012-1.155,0.32-1.47,0.867C0.541,3.74,0.557,4.385,0.84,4.9C0.338,5.205,0,5.756,0,6.387s0.338,1.182,0.84,1.486
		C0.557,8.389,0.541,9.035,0.857,9.58c0.314,0.547,0.882,0.855,1.47,0.869c0.013,0.588,0.321,1.154,0.867,1.469
		c0.547,0.316,1.191,0.301,1.708,0.018c0.305,0.502,0.855,0.838,1.485,0.838c0.632,0,1.183-0.336,1.487-0.838
		c0.516,0.283,1.16,0.299,1.707-0.018c0.547-0.314,0.855-0.881,0.867-1.469c0.588-0.014,1.155-0.322,1.471-0.869
		c0.316-0.545,0.299-1.191,0.016-1.707C12.438,7.568,12.775,7.018,12.775,6.387z"/>
	<rect x="5.775" y="12.322" fill="#FFFFFF" width="1.204" height="6.727"/>
	<path fill="#FFFFFF" d="M17.122,12.762c0,0,1.466,0,1.929,0c-0.773,0-2.576-3.504-2.576-3.504h0.984c0,0-2.041-2.957-2.041-6.293
		c0,3.336-2.039,6.293-2.039,6.293h0.984c0,0-1.802,3.504-2.576,3.504c0.463,0,1.929,0,1.929,0s-2.55,3.535-3.563,3.535
		c0.565,0,3.283,0,4.602,0v2.752h1.33v-2.752c1.317,0,4.035,0,4.602,0C19.672,16.297,17.122,12.762,17.122,12.762z"/>
</g>
</svg>
